G75*
%MOIN*%
%OFA0B0*%
%FSLAX24Y24*%
%IPPOS*%
%LPD*%
%AMOC8*
5,1,8,0,0,1.08239X$1,22.5*
%
%ADD10C,0.0740*%
%ADD11C,0.1024*%
%ADD12C,0.0560*%
%ADD13C,0.0063*%
%ADD14C,0.0317*%
%ADD15C,0.0278*%
%ADD16C,0.0120*%
%ADD17C,0.0100*%
D10*
X024944Y003131D03*
X025944Y003131D03*
X031887Y005131D03*
X031887Y006131D03*
X031887Y007131D03*
X031887Y008131D03*
X031887Y009131D03*
D11*
X034785Y007919D03*
X034785Y006344D03*
X016675Y006344D03*
X016675Y007919D03*
D12*
X020712Y010594D03*
X020712Y011381D03*
D13*
X015925Y001062D02*
X015835Y000844D01*
X017664Y000888D01*
X020321Y001085D01*
X022964Y001416D01*
X025587Y001878D01*
X028183Y002472D01*
X030747Y003195D01*
X033131Y003998D01*
X033131Y010265D01*
X030747Y011068D01*
X028183Y011791D01*
X025587Y012385D01*
X022964Y012847D01*
X020321Y013178D01*
X017664Y013375D01*
X015835Y013419D01*
X015925Y013201D01*
X015925Y012873D01*
X015818Y012615D01*
X015961Y012555D01*
X015961Y012555D01*
X016084Y012432D01*
X016207Y012555D01*
X016511Y012681D01*
X016839Y012681D01*
X017142Y012555D01*
X017374Y012323D01*
X017500Y012020D01*
X017500Y011692D01*
X017374Y011388D01*
X017142Y011156D01*
X016839Y011031D01*
X016511Y011031D01*
X016319Y011110D01*
X016319Y008533D01*
X016535Y008622D01*
X016815Y008622D01*
X017073Y008515D01*
X017271Y008317D01*
X017378Y008059D01*
X017378Y007779D01*
X017271Y007521D01*
X017073Y007323D01*
X016815Y007216D01*
X016535Y007216D01*
X016319Y007305D01*
X016319Y006881D01*
X016390Y006922D01*
X016468Y006955D01*
X016549Y006976D01*
X016633Y006987D01*
X016643Y006987D01*
X016643Y006376D01*
X016706Y006376D01*
X016706Y006987D01*
X016717Y006987D01*
X016801Y006976D01*
X016882Y006955D01*
X016960Y006922D01*
X017033Y006880D01*
X017100Y006829D01*
X017160Y006769D01*
X017211Y006702D01*
X017253Y006629D01*
X017285Y006551D01*
X017307Y006470D01*
X017318Y006386D01*
X017318Y006376D01*
X016706Y006376D01*
X016706Y006313D01*
X017318Y006313D01*
X017318Y006302D01*
X017307Y006218D01*
X017285Y006137D01*
X017253Y006059D01*
X017211Y005986D01*
X017160Y005919D01*
X017100Y005859D01*
X017033Y005808D01*
X016960Y005766D01*
X016882Y005734D01*
X016801Y005712D01*
X016717Y005701D01*
X016706Y005701D01*
X016706Y006313D01*
X016643Y006313D01*
X016643Y005701D01*
X016633Y005701D01*
X016549Y005712D01*
X016468Y005734D01*
X016390Y005766D01*
X016319Y005807D01*
X016319Y002243D01*
X016193Y001940D01*
X016193Y001940D01*
X016193Y001940D01*
X015961Y001708D01*
X015961Y001708D01*
X015818Y001648D01*
X015925Y001390D01*
X015925Y001062D01*
X015918Y001044D02*
X019760Y001044D01*
X020480Y001105D02*
X015925Y001105D01*
X015925Y001167D02*
X020971Y001167D01*
X021463Y001228D02*
X015925Y001228D01*
X015925Y001290D02*
X021955Y001290D01*
X022447Y001351D02*
X015925Y001351D01*
X015916Y001413D02*
X022939Y001413D01*
X023295Y001474D02*
X015890Y001474D01*
X015865Y001536D02*
X023644Y001536D01*
X023569Y001597D02*
X023993Y001597D01*
X023848Y001720D02*
X024690Y001720D01*
X024341Y001659D02*
X023717Y001659D01*
X023835Y001708D02*
X024067Y001940D01*
X024193Y002243D01*
X024193Y002571D01*
X024067Y002875D01*
X023835Y003107D01*
X023532Y003232D01*
X023204Y003232D01*
X022900Y003107D01*
X022668Y002875D01*
X022543Y002571D01*
X022543Y002243D01*
X022668Y001940D01*
X022900Y001708D01*
X023204Y001582D01*
X023532Y001582D01*
X023835Y001708D01*
X023909Y001782D02*
X025039Y001782D01*
X025388Y001843D02*
X023971Y001843D01*
X024032Y001905D02*
X025702Y001905D01*
X025971Y001966D02*
X024078Y001966D01*
X024104Y002028D02*
X026240Y002028D01*
X026509Y002089D02*
X024129Y002089D01*
X024155Y002151D02*
X026778Y002151D01*
X027047Y002212D02*
X024180Y002212D01*
X024193Y002274D02*
X027316Y002274D01*
X027585Y002335D02*
X024193Y002335D01*
X024193Y002397D02*
X027854Y002397D01*
X028123Y002458D02*
X024193Y002458D01*
X024193Y002520D02*
X028353Y002520D01*
X028571Y002581D02*
X025082Y002581D01*
X025055Y002570D02*
X025262Y002655D01*
X025420Y002813D01*
X025476Y002949D01*
X025479Y002939D01*
X025515Y002869D01*
X025561Y002805D01*
X025617Y002749D01*
X025681Y002703D01*
X025751Y002667D01*
X025826Y002642D01*
X025904Y002630D01*
X025912Y002630D01*
X025912Y003100D01*
X025975Y003100D01*
X025975Y003163D01*
X025912Y003163D01*
X025912Y003633D01*
X025904Y003633D01*
X025826Y003621D01*
X025751Y003596D01*
X025681Y003560D01*
X025617Y003514D01*
X025561Y003458D01*
X025515Y003394D01*
X025479Y003324D01*
X025476Y003314D01*
X025420Y003450D01*
X025262Y003608D01*
X025055Y003693D01*
X024832Y003693D01*
X024625Y003608D01*
X024467Y003450D01*
X024382Y003243D01*
X024382Y003020D01*
X024467Y002813D01*
X024625Y002655D01*
X024832Y002570D01*
X025055Y002570D01*
X025230Y002643D02*
X025825Y002643D01*
X025912Y002643D02*
X025975Y002643D01*
X025975Y002630D02*
X025983Y002630D01*
X026061Y002642D01*
X026136Y002667D01*
X026206Y002703D01*
X026270Y002749D01*
X026326Y002805D01*
X026372Y002869D01*
X026408Y002939D01*
X026433Y003014D01*
X026445Y003092D01*
X026445Y003100D01*
X025975Y003100D01*
X025975Y002630D01*
X025975Y002704D02*
X025912Y002704D01*
X025912Y002766D02*
X025975Y002766D01*
X025975Y002827D02*
X025912Y002827D01*
X025912Y002889D02*
X025975Y002889D01*
X025975Y002950D02*
X025912Y002950D01*
X025912Y003012D02*
X025975Y003012D01*
X025975Y003073D02*
X025912Y003073D01*
X025975Y003134D02*
X030533Y003134D01*
X030751Y003196D02*
X026441Y003196D01*
X026445Y003171D02*
X026433Y003249D01*
X026408Y003324D01*
X026372Y003394D01*
X026326Y003458D01*
X026270Y003514D01*
X026206Y003560D01*
X026136Y003596D01*
X026061Y003621D01*
X025983Y003633D01*
X025975Y003633D01*
X025975Y003163D01*
X026445Y003163D01*
X026445Y003171D01*
X026430Y003257D02*
X030933Y003257D01*
X031115Y003319D02*
X026410Y003319D01*
X026379Y003380D02*
X031298Y003380D01*
X031480Y003442D02*
X026338Y003442D01*
X026281Y003503D02*
X031663Y003503D01*
X031845Y003565D02*
X026197Y003565D01*
X026024Y003626D02*
X032028Y003626D01*
X032210Y003688D02*
X025067Y003688D01*
X025216Y003626D02*
X025863Y003626D01*
X025912Y003626D02*
X025975Y003626D01*
X025975Y003565D02*
X025912Y003565D01*
X025912Y003503D02*
X025975Y003503D01*
X025975Y003442D02*
X025912Y003442D01*
X025912Y003380D02*
X025975Y003380D01*
X025975Y003319D02*
X025912Y003319D01*
X025912Y003257D02*
X025975Y003257D01*
X025975Y003196D02*
X025912Y003196D01*
X025508Y003380D02*
X025448Y003380D01*
X025474Y003319D02*
X025477Y003319D01*
X025423Y003442D02*
X025549Y003442D01*
X025606Y003503D02*
X025366Y003503D01*
X025304Y003565D02*
X025690Y003565D01*
X024820Y003688D02*
X016319Y003688D01*
X016319Y003749D02*
X032393Y003749D01*
X032575Y003811D02*
X016319Y003811D01*
X016319Y003872D02*
X032758Y003872D01*
X032940Y003934D02*
X016319Y003934D01*
X016319Y003995D02*
X033122Y003995D01*
X033131Y004057D02*
X016319Y004057D01*
X016319Y004118D02*
X033131Y004118D01*
X033131Y004180D02*
X016319Y004180D01*
X016319Y004241D02*
X033131Y004241D01*
X033131Y004303D02*
X025952Y004303D01*
X025947Y004301D02*
X026069Y004351D01*
X026162Y004444D01*
X026212Y004566D01*
X026212Y004697D01*
X026162Y004819D01*
X026104Y004876D01*
X026104Y004939D01*
X026194Y004976D01*
X026287Y005069D01*
X026337Y005191D01*
X026337Y005322D01*
X026287Y005444D01*
X026194Y005537D01*
X026072Y005587D01*
X025941Y005587D01*
X025819Y005537D01*
X025726Y005444D01*
X025676Y005322D01*
X025676Y005241D01*
X025659Y005224D01*
X025659Y004876D01*
X025601Y004819D01*
X025551Y004697D01*
X025551Y004566D01*
X025601Y004444D01*
X025694Y004351D01*
X025816Y004301D01*
X025947Y004301D01*
X025811Y004303D02*
X021827Y004303D01*
X021822Y004301D02*
X021944Y004351D01*
X022037Y004444D01*
X022087Y004566D01*
X022087Y004697D01*
X022037Y004819D01*
X021944Y004912D01*
X021822Y004962D01*
X021691Y004962D01*
X021569Y004912D01*
X021531Y004873D01*
X021232Y004873D01*
X021194Y004912D01*
X021072Y004962D01*
X020941Y004962D01*
X020819Y004912D01*
X020726Y004819D01*
X020676Y004697D01*
X020676Y004566D01*
X020726Y004444D01*
X020819Y004351D01*
X020941Y004301D01*
X021072Y004301D01*
X021194Y004351D01*
X021232Y004390D01*
X021531Y004390D01*
X021569Y004351D01*
X021691Y004301D01*
X021822Y004301D01*
X021686Y004303D02*
X021077Y004303D01*
X020936Y004303D02*
X016319Y004303D01*
X016319Y004364D02*
X020806Y004364D01*
X020745Y004426D02*
X016319Y004426D01*
X016319Y004487D02*
X020708Y004487D01*
X020683Y004549D02*
X016319Y004549D01*
X016319Y004610D02*
X020676Y004610D01*
X020676Y004672D02*
X016319Y004672D01*
X016319Y004733D02*
X020691Y004733D01*
X020716Y004795D02*
X016319Y004795D01*
X016319Y004856D02*
X020764Y004856D01*
X020834Y004918D02*
X016319Y004918D01*
X016319Y004979D02*
X025659Y004979D01*
X025659Y004918D02*
X021929Y004918D01*
X021999Y004856D02*
X025639Y004856D01*
X025591Y004795D02*
X022047Y004795D01*
X022072Y004733D02*
X025566Y004733D01*
X025551Y004672D02*
X022087Y004672D01*
X022087Y004610D02*
X025551Y004610D01*
X025558Y004549D02*
X022080Y004549D01*
X022055Y004487D02*
X025583Y004487D01*
X025620Y004426D02*
X022018Y004426D01*
X021957Y004364D02*
X025681Y004364D01*
X025881Y004631D02*
X025881Y005131D01*
X026006Y005256D01*
X025676Y005287D02*
X016319Y005287D01*
X016319Y005348D02*
X025687Y005348D01*
X025712Y005410D02*
X016319Y005410D01*
X016319Y005471D02*
X025754Y005471D01*
X025815Y005533D02*
X016319Y005533D01*
X016319Y005594D02*
X031556Y005594D01*
X031569Y005608D02*
X031411Y005450D01*
X031326Y005243D01*
X031326Y005020D01*
X031411Y004813D01*
X031569Y004655D01*
X031776Y004570D01*
X031999Y004570D01*
X032205Y004655D01*
X032363Y004813D01*
X032449Y005020D01*
X032449Y005243D01*
X032363Y005450D01*
X032205Y005608D01*
X032148Y005631D01*
X032205Y005655D01*
X032363Y005813D01*
X032449Y006020D01*
X032449Y006243D01*
X032363Y006450D01*
X032205Y006608D01*
X032070Y006664D01*
X032080Y006667D01*
X032150Y006703D01*
X032214Y006749D01*
X032270Y006805D01*
X032316Y006869D01*
X032352Y006939D01*
X032377Y007014D01*
X032389Y007092D01*
X032389Y007100D01*
X031919Y007100D01*
X031919Y007163D01*
X032389Y007163D01*
X032389Y007171D01*
X032377Y007249D01*
X032352Y007324D01*
X032316Y007394D01*
X032270Y007458D01*
X032214Y007514D01*
X032150Y007560D01*
X032080Y007596D01*
X032070Y007599D01*
X032205Y007655D01*
X032363Y007813D01*
X032449Y008020D01*
X032449Y008243D01*
X032363Y008450D01*
X032205Y008608D01*
X032148Y008631D01*
X032205Y008655D01*
X032363Y008813D01*
X032449Y009020D01*
X032449Y009243D01*
X032363Y009450D01*
X032205Y009608D01*
X031999Y009693D01*
X031776Y009693D01*
X031569Y009608D01*
X031411Y009450D01*
X031326Y009243D01*
X031326Y009020D01*
X031411Y008813D01*
X031569Y008655D01*
X031627Y008631D01*
X031569Y008608D01*
X031411Y008450D01*
X031326Y008243D01*
X031326Y008020D01*
X031411Y007813D01*
X031569Y007655D01*
X031705Y007599D01*
X031695Y007596D01*
X031625Y007560D01*
X031561Y007514D01*
X031505Y007458D01*
X031458Y007394D01*
X031423Y007324D01*
X031398Y007249D01*
X031386Y007171D01*
X031386Y007163D01*
X031856Y007163D01*
X031856Y007100D01*
X031386Y007100D01*
X031386Y007092D01*
X031398Y007014D01*
X031423Y006939D01*
X031458Y006869D01*
X031505Y006805D01*
X031561Y006749D01*
X031625Y006703D01*
X031695Y006667D01*
X031705Y006664D01*
X031569Y006608D01*
X031411Y006450D01*
X031326Y006243D01*
X031326Y006020D01*
X031411Y005813D01*
X031569Y005655D01*
X031627Y005631D01*
X031569Y005608D01*
X031569Y005656D02*
X016319Y005656D01*
X016319Y005717D02*
X016529Y005717D01*
X016643Y005717D02*
X016706Y005717D01*
X016706Y005779D02*
X016643Y005779D01*
X016643Y005840D02*
X016706Y005840D01*
X016706Y005902D02*
X016643Y005902D01*
X016643Y005963D02*
X016706Y005963D01*
X016706Y006025D02*
X016643Y006025D01*
X016643Y006086D02*
X016706Y006086D01*
X016706Y006148D02*
X016643Y006148D01*
X016643Y006209D02*
X016706Y006209D01*
X016706Y006271D02*
X016643Y006271D01*
X016706Y006332D02*
X020801Y006332D01*
X020801Y006316D02*
X020851Y006194D01*
X020944Y006101D01*
X021066Y006051D01*
X021197Y006051D01*
X021319Y006101D01*
X021412Y006194D01*
X021462Y006316D01*
X021462Y006447D01*
X021412Y006569D01*
X021383Y006597D01*
X021383Y008041D01*
X021412Y008069D01*
X021462Y008191D01*
X021462Y008322D01*
X021412Y008444D01*
X021319Y008537D01*
X021197Y008587D01*
X021066Y008587D01*
X020944Y008537D01*
X020851Y008444D01*
X020801Y008322D01*
X020801Y008191D01*
X020851Y008069D01*
X020880Y008041D01*
X020880Y006597D01*
X020851Y006569D01*
X020801Y006447D01*
X020801Y006316D01*
X020820Y006271D02*
X017314Y006271D01*
X017305Y006209D02*
X020845Y006209D01*
X020898Y006148D02*
X017288Y006148D01*
X017264Y006086D02*
X020981Y006086D01*
X021282Y006086D02*
X025356Y006086D01*
X025319Y006101D02*
X025441Y006051D01*
X025572Y006051D01*
X025694Y006101D01*
X025756Y006164D01*
X025819Y006101D01*
X025941Y006051D01*
X026072Y006051D01*
X026194Y006101D01*
X026287Y006194D01*
X026337Y006316D01*
X026337Y006447D01*
X026287Y006569D01*
X026229Y006626D01*
X026229Y008012D01*
X026287Y008069D01*
X026337Y008191D01*
X026337Y008322D01*
X026287Y008444D01*
X026194Y008537D01*
X026072Y008587D01*
X025941Y008587D01*
X025819Y008537D01*
X025726Y008444D01*
X025676Y008322D01*
X025676Y008191D01*
X025726Y008069D01*
X025784Y008012D01*
X025784Y007197D01*
X025694Y007287D01*
X025572Y007337D01*
X025441Y007337D01*
X025319Y007287D01*
X025226Y007194D01*
X025176Y007072D01*
X025176Y006941D01*
X025226Y006819D01*
X025265Y006781D01*
X025265Y006607D01*
X025226Y006569D01*
X025176Y006447D01*
X025176Y006316D01*
X025226Y006194D01*
X025319Y006101D01*
X025273Y006148D02*
X021365Y006148D01*
X021418Y006209D02*
X025220Y006209D01*
X025195Y006271D02*
X021443Y006271D01*
X021462Y006332D02*
X025176Y006332D01*
X025176Y006394D02*
X021462Y006394D01*
X021459Y006455D02*
X025179Y006455D01*
X025205Y006517D02*
X021433Y006517D01*
X021402Y006578D02*
X025236Y006578D01*
X025265Y006640D02*
X021383Y006640D01*
X021383Y006701D02*
X025265Y006701D01*
X025265Y006763D02*
X021383Y006763D01*
X021383Y006824D02*
X025224Y006824D01*
X025199Y006886D02*
X021383Y006886D01*
X021383Y006947D02*
X025176Y006947D01*
X025176Y007009D02*
X021383Y007009D01*
X021383Y007070D02*
X025176Y007070D01*
X025200Y007131D02*
X021383Y007131D01*
X021383Y007193D02*
X025226Y007193D01*
X025287Y007254D02*
X021383Y007254D01*
X021383Y007316D02*
X025390Y007316D01*
X025623Y007316D02*
X025784Y007316D01*
X025784Y007377D02*
X021383Y007377D01*
X021383Y007439D02*
X025784Y007439D01*
X025784Y007500D02*
X021383Y007500D01*
X021383Y007562D02*
X025784Y007562D01*
X025784Y007623D02*
X021383Y007623D01*
X021383Y007685D02*
X025784Y007685D01*
X025784Y007746D02*
X021383Y007746D01*
X021383Y007808D02*
X025784Y007808D01*
X025784Y007869D02*
X021383Y007869D01*
X021383Y007931D02*
X025784Y007931D01*
X025784Y007992D02*
X021383Y007992D01*
X021396Y008054D02*
X025742Y008054D01*
X025707Y008115D02*
X021431Y008115D01*
X021456Y008177D02*
X025682Y008177D01*
X025676Y008238D02*
X021462Y008238D01*
X021462Y008300D02*
X025676Y008300D01*
X025692Y008361D02*
X021446Y008361D01*
X021420Y008423D02*
X025718Y008423D01*
X025767Y008484D02*
X021371Y008484D01*
X021297Y008546D02*
X025841Y008546D01*
X026172Y008546D02*
X029125Y008546D01*
X029101Y008569D02*
X029194Y008476D01*
X029316Y008426D01*
X029447Y008426D01*
X029569Y008476D01*
X029662Y008569D01*
X029712Y008691D01*
X029712Y008822D01*
X029662Y008944D01*
X029604Y009001D01*
X029604Y009039D01*
X029724Y009159D01*
X030349Y009159D01*
X030366Y009176D01*
X030447Y009176D01*
X030569Y009226D01*
X030662Y009319D01*
X030712Y009441D01*
X030712Y009572D01*
X030662Y009694D01*
X030569Y009787D01*
X030447Y009837D01*
X030316Y009837D01*
X030194Y009787D01*
X030101Y009694D01*
X030064Y009604D01*
X029539Y009604D01*
X029409Y009474D01*
X029159Y009224D01*
X029159Y009001D01*
X029101Y008944D01*
X029051Y008822D01*
X029051Y008691D01*
X029101Y008569D01*
X029086Y008607D02*
X016851Y008607D01*
X016999Y008546D02*
X020966Y008546D01*
X020892Y008484D02*
X017104Y008484D01*
X017165Y008423D02*
X020843Y008423D01*
X020817Y008361D02*
X017227Y008361D01*
X017278Y008300D02*
X020801Y008300D01*
X020801Y008238D02*
X017304Y008238D01*
X017329Y008177D02*
X020807Y008177D01*
X020832Y008115D02*
X017355Y008115D01*
X017378Y008054D02*
X020867Y008054D01*
X020880Y007992D02*
X017378Y007992D01*
X017378Y007931D02*
X020880Y007931D01*
X020880Y007869D02*
X017378Y007869D01*
X017378Y007808D02*
X020880Y007808D01*
X020880Y007746D02*
X017365Y007746D01*
X017339Y007685D02*
X020880Y007685D01*
X020880Y007623D02*
X017314Y007623D01*
X017288Y007562D02*
X020880Y007562D01*
X020880Y007500D02*
X017251Y007500D01*
X017189Y007439D02*
X020880Y007439D01*
X020880Y007377D02*
X017128Y007377D01*
X017057Y007316D02*
X020880Y007316D01*
X020880Y007254D02*
X016909Y007254D01*
X016441Y007254D02*
X016319Y007254D01*
X016319Y007193D02*
X020880Y007193D01*
X020880Y007131D02*
X016319Y007131D01*
X016319Y007070D02*
X020880Y007070D01*
X020880Y007009D02*
X016319Y007009D01*
X016319Y006947D02*
X016449Y006947D01*
X016326Y006886D02*
X016319Y006886D01*
X016643Y006886D02*
X016706Y006886D01*
X016706Y006947D02*
X016643Y006947D01*
X016643Y006824D02*
X016706Y006824D01*
X016706Y006763D02*
X016643Y006763D01*
X016643Y006701D02*
X016706Y006701D01*
X016706Y006640D02*
X016643Y006640D01*
X016643Y006578D02*
X016706Y006578D01*
X016706Y006517D02*
X016643Y006517D01*
X016643Y006455D02*
X016706Y006455D01*
X016706Y006394D02*
X016643Y006394D01*
X017212Y006701D02*
X020880Y006701D01*
X020880Y006640D02*
X017247Y006640D01*
X017274Y006578D02*
X020861Y006578D01*
X020830Y006517D02*
X017295Y006517D01*
X017309Y006455D02*
X020804Y006455D01*
X020801Y006394D02*
X017317Y006394D01*
X017233Y006025D02*
X031326Y006025D01*
X031326Y006086D02*
X026157Y006086D01*
X026240Y006148D02*
X031326Y006148D01*
X031326Y006209D02*
X026293Y006209D01*
X026318Y006271D02*
X031337Y006271D01*
X031363Y006332D02*
X026337Y006332D01*
X026337Y006394D02*
X031388Y006394D01*
X031417Y006455D02*
X026334Y006455D01*
X026308Y006517D02*
X031478Y006517D01*
X031540Y006578D02*
X026277Y006578D01*
X026229Y006640D02*
X031647Y006640D01*
X031628Y006701D02*
X026229Y006701D01*
X026229Y006763D02*
X031547Y006763D01*
X031491Y006824D02*
X026229Y006824D01*
X026229Y006886D02*
X031450Y006886D01*
X031420Y006947D02*
X026229Y006947D01*
X026229Y007009D02*
X031400Y007009D01*
X031389Y007070D02*
X026229Y007070D01*
X026229Y007131D02*
X031856Y007131D01*
X031919Y007131D02*
X033131Y007131D01*
X033131Y007070D02*
X032385Y007070D01*
X032375Y007009D02*
X033131Y007009D01*
X033131Y006947D02*
X032355Y006947D01*
X032325Y006886D02*
X033131Y006886D01*
X033131Y006824D02*
X032284Y006824D01*
X032228Y006763D02*
X033131Y006763D01*
X033131Y006701D02*
X032147Y006701D01*
X032128Y006640D02*
X033131Y006640D01*
X033131Y006578D02*
X032235Y006578D01*
X032296Y006517D02*
X033131Y006517D01*
X033131Y006455D02*
X032358Y006455D01*
X032387Y006394D02*
X033131Y006394D01*
X033131Y006332D02*
X032412Y006332D01*
X032438Y006271D02*
X033131Y006271D01*
X033131Y006209D02*
X032449Y006209D01*
X032449Y006148D02*
X033131Y006148D01*
X033131Y006086D02*
X032449Y006086D01*
X032449Y006025D02*
X033131Y006025D01*
X033131Y005963D02*
X032425Y005963D01*
X032400Y005902D02*
X033131Y005902D01*
X033131Y005840D02*
X032374Y005840D01*
X032329Y005779D02*
X033131Y005779D01*
X033131Y005717D02*
X032267Y005717D01*
X032206Y005656D02*
X033131Y005656D01*
X033131Y005594D02*
X032219Y005594D01*
X032280Y005533D02*
X033131Y005533D01*
X033131Y005471D02*
X032342Y005471D01*
X032380Y005410D02*
X033131Y005410D01*
X033131Y005348D02*
X032405Y005348D01*
X032431Y005287D02*
X033131Y005287D01*
X033131Y005225D02*
X032449Y005225D01*
X032449Y005164D02*
X033131Y005164D01*
X033131Y005102D02*
X032449Y005102D01*
X032449Y005041D02*
X033131Y005041D01*
X033131Y004979D02*
X032432Y004979D01*
X032407Y004918D02*
X033131Y004918D01*
X033131Y004856D02*
X032381Y004856D01*
X032345Y004795D02*
X033131Y004795D01*
X033131Y004733D02*
X032283Y004733D01*
X032222Y004672D02*
X033131Y004672D01*
X033131Y004610D02*
X032096Y004610D01*
X031678Y004610D02*
X026212Y004610D01*
X026205Y004549D02*
X033131Y004549D01*
X033131Y004487D02*
X026180Y004487D01*
X026143Y004426D02*
X033131Y004426D01*
X033131Y004364D02*
X026082Y004364D01*
X026212Y004672D02*
X031553Y004672D01*
X031492Y004733D02*
X026197Y004733D01*
X026172Y004795D02*
X031430Y004795D01*
X031394Y004856D02*
X026124Y004856D01*
X026104Y004918D02*
X031368Y004918D01*
X031343Y004979D02*
X026197Y004979D01*
X026258Y005041D02*
X031326Y005041D01*
X031326Y005102D02*
X026300Y005102D01*
X026326Y005164D02*
X031326Y005164D01*
X031326Y005225D02*
X026337Y005225D01*
X026337Y005287D02*
X031344Y005287D01*
X031369Y005348D02*
X026326Y005348D01*
X026301Y005410D02*
X031395Y005410D01*
X031433Y005471D02*
X026259Y005471D01*
X026198Y005533D02*
X031495Y005533D01*
X031508Y005717D02*
X016821Y005717D01*
X016982Y005779D02*
X031446Y005779D01*
X031400Y005840D02*
X017075Y005840D01*
X017142Y005902D02*
X031375Y005902D01*
X031349Y005963D02*
X017193Y005963D01*
X016368Y005779D02*
X016319Y005779D01*
X016319Y005225D02*
X025660Y005225D01*
X025659Y005164D02*
X016319Y005164D01*
X016319Y005102D02*
X025659Y005102D01*
X025659Y005041D02*
X016319Y005041D01*
X016319Y003626D02*
X024671Y003626D01*
X024583Y003565D02*
X016319Y003565D01*
X016319Y003503D02*
X024521Y003503D01*
X024464Y003442D02*
X016319Y003442D01*
X016319Y003380D02*
X024439Y003380D01*
X024413Y003319D02*
X016319Y003319D01*
X016319Y003257D02*
X024388Y003257D01*
X024382Y003196D02*
X023619Y003196D01*
X023768Y003134D02*
X024382Y003134D01*
X024382Y003073D02*
X023869Y003073D01*
X023930Y003012D02*
X024385Y003012D01*
X024411Y002950D02*
X023992Y002950D01*
X024053Y002889D02*
X024436Y002889D01*
X024462Y002827D02*
X024087Y002827D01*
X024112Y002766D02*
X024515Y002766D01*
X024577Y002704D02*
X024138Y002704D01*
X024163Y002643D02*
X024657Y002643D01*
X024805Y002581D02*
X024189Y002581D01*
X025310Y002704D02*
X025679Y002704D01*
X025600Y002766D02*
X025372Y002766D01*
X025425Y002827D02*
X025545Y002827D01*
X025504Y002889D02*
X025451Y002889D01*
X026062Y002643D02*
X028789Y002643D01*
X029007Y002704D02*
X026208Y002704D01*
X026287Y002766D02*
X029225Y002766D01*
X029443Y002827D02*
X026342Y002827D01*
X026383Y002889D02*
X029661Y002889D01*
X029879Y002950D02*
X026412Y002950D01*
X026432Y003012D02*
X030097Y003012D01*
X030315Y003073D02*
X026442Y003073D01*
X023116Y003196D02*
X016319Y003196D01*
X016319Y003134D02*
X022967Y003134D01*
X022867Y003073D02*
X016319Y003073D01*
X016319Y003012D02*
X022805Y003012D01*
X022744Y002950D02*
X016319Y002950D01*
X016319Y002889D02*
X022682Y002889D01*
X022648Y002827D02*
X016319Y002827D01*
X016319Y002766D02*
X022623Y002766D01*
X022598Y002704D02*
X016319Y002704D01*
X016319Y002643D02*
X022572Y002643D01*
X022547Y002581D02*
X016319Y002581D01*
X016319Y002520D02*
X022543Y002520D01*
X022543Y002458D02*
X016319Y002458D01*
X016319Y002397D02*
X022543Y002397D01*
X022543Y002335D02*
X016319Y002335D01*
X016319Y002274D02*
X022543Y002274D01*
X022555Y002212D02*
X016306Y002212D01*
X016281Y002151D02*
X022581Y002151D01*
X022606Y002089D02*
X016255Y002089D01*
X016230Y002028D02*
X022632Y002028D01*
X022657Y001966D02*
X016204Y001966D01*
X016158Y001905D02*
X022703Y001905D01*
X022765Y001843D02*
X016097Y001843D01*
X016035Y001782D02*
X022826Y001782D01*
X022888Y001720D02*
X015974Y001720D01*
X015843Y001659D02*
X023018Y001659D01*
X023167Y001597D02*
X015839Y001597D01*
X015892Y000982D02*
X018933Y000982D01*
X018105Y000921D02*
X015867Y000921D01*
X015841Y000859D02*
X016468Y000859D01*
X021207Y004364D02*
X021556Y004364D01*
X021584Y004918D02*
X021179Y004918D01*
X025657Y006086D02*
X025856Y006086D01*
X025773Y006148D02*
X025740Y006148D01*
X026006Y006381D02*
X026006Y008256D01*
X026306Y008115D02*
X031326Y008115D01*
X031326Y008054D02*
X026271Y008054D01*
X026229Y007992D02*
X031337Y007992D01*
X031363Y007931D02*
X026229Y007931D01*
X026229Y007869D02*
X031388Y007869D01*
X031417Y007808D02*
X026229Y007808D01*
X026229Y007746D02*
X031478Y007746D01*
X031540Y007685D02*
X026229Y007685D01*
X026229Y007623D02*
X031647Y007623D01*
X031628Y007562D02*
X026229Y007562D01*
X026229Y007500D02*
X031547Y007500D01*
X031491Y007439D02*
X026229Y007439D01*
X026229Y007377D02*
X031450Y007377D01*
X031420Y007316D02*
X026229Y007316D01*
X026229Y007254D02*
X031400Y007254D01*
X031389Y007193D02*
X026229Y007193D01*
X025784Y007254D02*
X025726Y007254D01*
X026331Y008177D02*
X031326Y008177D01*
X031326Y008238D02*
X026337Y008238D01*
X026337Y008300D02*
X031349Y008300D01*
X031375Y008361D02*
X026321Y008361D01*
X026295Y008423D02*
X031400Y008423D01*
X031446Y008484D02*
X029577Y008484D01*
X029638Y008546D02*
X031508Y008546D01*
X031569Y008607D02*
X029677Y008607D01*
X029703Y008669D02*
X031556Y008669D01*
X031495Y008730D02*
X029712Y008730D01*
X029712Y008792D02*
X031433Y008792D01*
X031395Y008853D02*
X029699Y008853D01*
X029674Y008915D02*
X031369Y008915D01*
X031344Y008976D02*
X029629Y008976D01*
X029604Y009038D02*
X031326Y009038D01*
X031326Y009099D02*
X029665Y009099D01*
X029631Y009381D02*
X029381Y009131D01*
X029381Y008756D01*
X029051Y008730D02*
X016319Y008730D01*
X016319Y008669D02*
X029060Y008669D01*
X029051Y008792D02*
X016319Y008792D01*
X016319Y008853D02*
X029064Y008853D01*
X029089Y008915D02*
X016319Y008915D01*
X016319Y008976D02*
X029134Y008976D01*
X029159Y009038D02*
X016319Y009038D01*
X016319Y009099D02*
X029159Y009099D01*
X029159Y009161D02*
X016319Y009161D01*
X016319Y009222D02*
X029159Y009222D01*
X029218Y009284D02*
X016319Y009284D01*
X016319Y009345D02*
X029280Y009345D01*
X029341Y009407D02*
X016319Y009407D01*
X016319Y009468D02*
X029403Y009468D01*
X029464Y009530D02*
X016319Y009530D01*
X016319Y009591D02*
X029526Y009591D01*
X030084Y009653D02*
X016319Y009653D01*
X016319Y009714D02*
X030122Y009714D01*
X030183Y009776D02*
X016319Y009776D01*
X016319Y009837D02*
X028228Y009837D01*
X028194Y009851D02*
X028316Y009801D01*
X028447Y009801D01*
X028569Y009851D01*
X028631Y009914D01*
X028694Y009851D01*
X028816Y009801D01*
X028947Y009801D01*
X029069Y009851D01*
X029162Y009944D01*
X029212Y010066D01*
X029212Y010197D01*
X029162Y010319D01*
X029104Y010376D01*
X029104Y010712D01*
X029191Y010676D01*
X029322Y010676D01*
X029444Y010726D01*
X029537Y010819D01*
X029587Y010941D01*
X029587Y011072D01*
X029537Y011194D01*
X029444Y011287D01*
X029322Y011337D01*
X029191Y011337D01*
X029069Y011287D01*
X029012Y011229D01*
X028789Y011229D01*
X028685Y011125D01*
X028712Y011191D01*
X028712Y011322D01*
X028662Y011444D01*
X028569Y011537D01*
X028447Y011587D01*
X028316Y011587D01*
X028194Y011537D01*
X028101Y011444D01*
X028051Y011322D01*
X028051Y011191D01*
X028101Y011069D01*
X028159Y011012D01*
X028159Y010376D01*
X028101Y010319D01*
X028051Y010197D01*
X028051Y010066D01*
X028101Y009944D01*
X028194Y009851D01*
X028147Y009899D02*
X016319Y009899D01*
X016319Y009960D02*
X028095Y009960D01*
X028069Y010022D02*
X016319Y010022D01*
X016319Y010083D02*
X028051Y010083D01*
X028051Y010145D02*
X016319Y010145D01*
X016319Y010206D02*
X020575Y010206D01*
X020554Y010213D02*
X020616Y010193D01*
X020680Y010183D01*
X020681Y010183D01*
X020681Y010563D01*
X020301Y010563D01*
X020301Y010562D01*
X020311Y010498D01*
X020331Y010436D01*
X020360Y010378D01*
X020398Y010326D01*
X020444Y010280D01*
X020497Y010242D01*
X020554Y010213D01*
X020461Y010268D02*
X016319Y010268D01*
X016319Y010329D02*
X020396Y010329D01*
X020354Y010391D02*
X016319Y010391D01*
X016319Y010452D02*
X020326Y010452D01*
X020308Y010514D02*
X016319Y010514D01*
X016319Y010575D02*
X020681Y010575D01*
X020681Y010563D02*
X020681Y010626D01*
X020301Y010626D01*
X020301Y010626D01*
X020311Y010690D01*
X020331Y010752D01*
X020360Y010810D01*
X020398Y010862D01*
X020444Y010908D01*
X020497Y010946D01*
X020512Y010954D01*
X020445Y010982D01*
X020312Y011114D01*
X020241Y011288D01*
X020241Y011475D01*
X020312Y011649D01*
X020445Y011781D01*
X020618Y011853D01*
X020806Y011853D01*
X020979Y011781D01*
X021112Y011649D01*
X021184Y011475D01*
X021184Y011288D01*
X021112Y011114D01*
X020979Y010982D01*
X020912Y010954D01*
X020928Y010946D01*
X020980Y010908D01*
X021026Y010862D01*
X021064Y010810D01*
X021094Y010752D01*
X021114Y010690D01*
X021124Y010626D01*
X021124Y010626D01*
X020744Y010626D01*
X020744Y010563D01*
X021124Y010563D01*
X021124Y010562D01*
X021114Y010498D01*
X021094Y010436D01*
X021064Y010378D01*
X021026Y010326D01*
X020980Y010280D01*
X020928Y010242D01*
X020870Y010213D01*
X020809Y010193D01*
X020745Y010183D01*
X020744Y010183D01*
X020744Y010563D01*
X020681Y010563D01*
X020681Y010514D02*
X020744Y010514D01*
X020744Y010575D02*
X028159Y010575D01*
X028159Y010514D02*
X021116Y010514D01*
X021099Y010452D02*
X028159Y010452D01*
X028159Y010391D02*
X021070Y010391D01*
X021028Y010329D02*
X028112Y010329D01*
X028080Y010268D02*
X020963Y010268D01*
X020850Y010206D02*
X028055Y010206D01*
X028381Y010131D02*
X028381Y011256D01*
X028077Y011129D02*
X023768Y011129D01*
X023835Y011156D02*
X024067Y011388D01*
X024193Y011692D01*
X024193Y012020D01*
X024067Y012323D01*
X023835Y012555D01*
X023532Y012681D01*
X023204Y012681D01*
X022900Y012555D01*
X022668Y012323D01*
X022543Y012020D01*
X022543Y011692D01*
X022668Y011388D01*
X022900Y011156D01*
X023204Y011031D01*
X023532Y011031D01*
X023835Y011156D01*
X023869Y011190D02*
X028051Y011190D01*
X028051Y011251D02*
X023930Y011251D01*
X023992Y011313D02*
X028051Y011313D01*
X028073Y011374D02*
X024053Y011374D01*
X024087Y011436D02*
X028098Y011436D01*
X028155Y011497D02*
X024112Y011497D01*
X024138Y011559D02*
X028248Y011559D01*
X028353Y011743D02*
X024193Y011743D01*
X024189Y011682D02*
X028571Y011682D01*
X028515Y011559D02*
X029007Y011559D01*
X029225Y011497D02*
X028608Y011497D01*
X028665Y011436D02*
X029443Y011436D01*
X029380Y011313D02*
X029879Y011313D01*
X029661Y011374D02*
X028690Y011374D01*
X028712Y011313D02*
X029133Y011313D01*
X029034Y011251D02*
X028712Y011251D01*
X028712Y011190D02*
X028750Y011190D01*
X028688Y011129D02*
X028686Y011129D01*
X028881Y011006D02*
X029256Y011006D01*
X029563Y010883D02*
X031298Y010883D01*
X031115Y010944D02*
X029587Y010944D01*
X029587Y011006D02*
X030933Y011006D01*
X030751Y011067D02*
X029587Y011067D01*
X029564Y011129D02*
X030533Y011129D01*
X030315Y011190D02*
X029538Y011190D01*
X029479Y011251D02*
X030097Y011251D01*
X029537Y010821D02*
X031480Y010821D01*
X031663Y010760D02*
X029477Y010760D01*
X029376Y010698D02*
X031845Y010698D01*
X032028Y010637D02*
X029104Y010637D01*
X029104Y010698D02*
X029137Y010698D01*
X029104Y010575D02*
X032210Y010575D01*
X032393Y010514D02*
X029104Y010514D01*
X029104Y010452D02*
X032575Y010452D01*
X032758Y010391D02*
X029104Y010391D01*
X029151Y010329D02*
X032940Y010329D01*
X033122Y010268D02*
X029183Y010268D01*
X029208Y010206D02*
X033131Y010206D01*
X033131Y010145D02*
X029212Y010145D01*
X029212Y010083D02*
X033131Y010083D01*
X033131Y010022D02*
X029194Y010022D01*
X029168Y009960D02*
X033131Y009960D01*
X033131Y009899D02*
X029116Y009899D01*
X029035Y009837D02*
X033131Y009837D01*
X033131Y009776D02*
X030580Y009776D01*
X030641Y009714D02*
X033131Y009714D01*
X033131Y009653D02*
X032096Y009653D01*
X032222Y009591D02*
X033131Y009591D01*
X033131Y009530D02*
X032283Y009530D01*
X032345Y009468D02*
X033131Y009468D01*
X033131Y009407D02*
X032381Y009407D01*
X032407Y009345D02*
X033131Y009345D01*
X033131Y009284D02*
X032432Y009284D01*
X032449Y009222D02*
X033131Y009222D01*
X033131Y009161D02*
X032449Y009161D01*
X032449Y009099D02*
X033131Y009099D01*
X033131Y009038D02*
X032449Y009038D01*
X032431Y008976D02*
X033131Y008976D01*
X033131Y008915D02*
X032405Y008915D01*
X032380Y008853D02*
X033131Y008853D01*
X033131Y008792D02*
X032342Y008792D01*
X032280Y008730D02*
X033131Y008730D01*
X033131Y008669D02*
X032219Y008669D01*
X032206Y008607D02*
X033131Y008607D01*
X033131Y008546D02*
X032267Y008546D01*
X032329Y008484D02*
X033131Y008484D01*
X033131Y008423D02*
X032374Y008423D01*
X032400Y008361D02*
X033131Y008361D01*
X033131Y008300D02*
X032425Y008300D01*
X032449Y008238D02*
X033131Y008238D01*
X033131Y008177D02*
X032449Y008177D01*
X032449Y008115D02*
X033131Y008115D01*
X033131Y008054D02*
X032449Y008054D01*
X032438Y007992D02*
X033131Y007992D01*
X033131Y007931D02*
X032412Y007931D01*
X032387Y007869D02*
X033131Y007869D01*
X033131Y007808D02*
X032358Y007808D01*
X032296Y007746D02*
X033131Y007746D01*
X033131Y007685D02*
X032235Y007685D01*
X032128Y007623D02*
X033131Y007623D01*
X033131Y007562D02*
X032147Y007562D01*
X032228Y007500D02*
X033131Y007500D01*
X033131Y007439D02*
X032284Y007439D01*
X032325Y007377D02*
X033131Y007377D01*
X033131Y007316D02*
X032355Y007316D01*
X032375Y007254D02*
X033131Y007254D01*
X033131Y007193D02*
X032385Y007193D01*
X029186Y008484D02*
X026246Y008484D01*
X028535Y009837D02*
X028728Y009837D01*
X028647Y009899D02*
X028616Y009899D01*
X028881Y010131D02*
X028881Y011006D01*
X028159Y011006D02*
X021003Y011006D01*
X021065Y011067D02*
X023116Y011067D01*
X022967Y011129D02*
X021118Y011129D01*
X021143Y011190D02*
X022867Y011190D01*
X022805Y011251D02*
X021169Y011251D01*
X021184Y011313D02*
X022744Y011313D01*
X022682Y011374D02*
X021184Y011374D01*
X021184Y011436D02*
X022648Y011436D01*
X022623Y011497D02*
X021175Y011497D01*
X021149Y011559D02*
X022598Y011559D01*
X022572Y011620D02*
X021124Y011620D01*
X021079Y011682D02*
X022547Y011682D01*
X022543Y011743D02*
X021017Y011743D01*
X020922Y011805D02*
X022543Y011805D01*
X022543Y011866D02*
X017500Y011866D01*
X017500Y011805D02*
X020502Y011805D01*
X020407Y011743D02*
X017500Y011743D01*
X017496Y011682D02*
X020346Y011682D01*
X020301Y011620D02*
X017470Y011620D01*
X017445Y011559D02*
X020275Y011559D01*
X020250Y011497D02*
X017420Y011497D01*
X017394Y011436D02*
X020241Y011436D01*
X020241Y011374D02*
X017360Y011374D01*
X017299Y011313D02*
X020241Y011313D01*
X020256Y011251D02*
X017237Y011251D01*
X017176Y011190D02*
X020281Y011190D01*
X020307Y011129D02*
X017075Y011129D01*
X016927Y011067D02*
X020360Y011067D01*
X020421Y011006D02*
X016319Y011006D01*
X016319Y011067D02*
X016423Y011067D01*
X016319Y010944D02*
X020494Y010944D01*
X020419Y010883D02*
X016319Y010883D01*
X016319Y010821D02*
X020368Y010821D01*
X020335Y010760D02*
X016319Y010760D01*
X016319Y010698D02*
X020313Y010698D01*
X020302Y010637D02*
X016319Y010637D01*
X017500Y011928D02*
X022543Y011928D01*
X022543Y011989D02*
X017500Y011989D01*
X017487Y012051D02*
X022555Y012051D01*
X022581Y012112D02*
X017462Y012112D01*
X017436Y012174D02*
X022606Y012174D01*
X022632Y012235D02*
X017411Y012235D01*
X017385Y012297D02*
X022657Y012297D01*
X022703Y012358D02*
X017339Y012358D01*
X017278Y012420D02*
X022765Y012420D01*
X022826Y012481D02*
X017216Y012481D01*
X017155Y012543D02*
X022888Y012543D01*
X023018Y012604D02*
X017024Y012604D01*
X016876Y012666D02*
X023167Y012666D01*
X023295Y012789D02*
X015890Y012789D01*
X015916Y012850D02*
X022939Y012850D01*
X022447Y012912D02*
X015925Y012912D01*
X015925Y012973D02*
X021955Y012973D01*
X021463Y013035D02*
X015925Y013035D01*
X015925Y013096D02*
X020971Y013096D01*
X020480Y013158D02*
X015925Y013158D01*
X015918Y013219D02*
X019760Y013219D01*
X018933Y013281D02*
X015892Y013281D01*
X015867Y013342D02*
X018105Y013342D01*
X016468Y013404D02*
X015841Y013404D01*
X015865Y012727D02*
X023644Y012727D01*
X023569Y012666D02*
X023993Y012666D01*
X023848Y012543D02*
X024690Y012543D01*
X024341Y012604D02*
X023717Y012604D01*
X023909Y012481D02*
X025039Y012481D01*
X025388Y012420D02*
X023971Y012420D01*
X024032Y012358D02*
X025702Y012358D01*
X025971Y012297D02*
X024078Y012297D01*
X024104Y012235D02*
X026240Y012235D01*
X026509Y012174D02*
X024129Y012174D01*
X024155Y012112D02*
X026778Y012112D01*
X027047Y012051D02*
X024180Y012051D01*
X024193Y011989D02*
X027316Y011989D01*
X027585Y011928D02*
X024193Y011928D01*
X024193Y011866D02*
X027854Y011866D01*
X028123Y011805D02*
X024193Y011805D01*
X024163Y011620D02*
X028789Y011620D01*
X028104Y011067D02*
X023619Y011067D01*
X021122Y010637D02*
X028159Y010637D01*
X028159Y010698D02*
X021111Y010698D01*
X021090Y010760D02*
X028159Y010760D01*
X028159Y010821D02*
X021056Y010821D01*
X021006Y010883D02*
X028159Y010883D01*
X028159Y010944D02*
X020931Y010944D01*
X020744Y010452D02*
X020681Y010452D01*
X020681Y010391D02*
X020744Y010391D01*
X020744Y010329D02*
X020681Y010329D01*
X020681Y010268D02*
X020744Y010268D01*
X020744Y010206D02*
X020681Y010206D01*
X016499Y008607D02*
X016319Y008607D01*
X016319Y008546D02*
X016351Y008546D01*
X016900Y006947D02*
X020880Y006947D01*
X020880Y006886D02*
X017024Y006886D01*
X017105Y006824D02*
X020880Y006824D01*
X020880Y006763D02*
X017165Y006763D01*
X029631Y009381D02*
X030256Y009381D01*
X030381Y009506D01*
X030626Y009284D02*
X031343Y009284D01*
X031326Y009222D02*
X030559Y009222D01*
X030672Y009345D02*
X031368Y009345D01*
X031394Y009407D02*
X030698Y009407D01*
X030712Y009468D02*
X031430Y009468D01*
X031492Y009530D02*
X030712Y009530D01*
X030704Y009591D02*
X031553Y009591D01*
X031678Y009653D02*
X030679Y009653D01*
X030351Y009161D02*
X031326Y009161D01*
X016474Y012666D02*
X015839Y012666D01*
X015843Y012604D02*
X016325Y012604D01*
X016195Y012543D02*
X015974Y012543D01*
X016035Y012481D02*
X016133Y012481D01*
D14*
X026881Y009131D03*
X029381Y010256D03*
X021506Y007256D03*
X018881Y006131D03*
X020756Y005506D03*
X021881Y005131D03*
X023881Y005131D03*
X024756Y005131D03*
X028256Y003756D03*
X020131Y002631D03*
D15*
X021006Y004631D03*
X021756Y004631D03*
X025881Y004631D03*
X026006Y005256D03*
X026006Y006381D03*
X025506Y006381D03*
X025506Y007006D03*
X026006Y008256D03*
X029381Y008756D03*
X030381Y009506D03*
X028881Y010131D03*
X028381Y010131D03*
X029256Y011006D03*
X028381Y011256D03*
X021131Y008256D03*
X021131Y006381D03*
D16*
X021131Y008256D01*
D17*
X025506Y007006D02*
X025506Y006381D01*
X021756Y004631D02*
X021006Y004631D01*
M02*
