G75*
%MOIN*%
%OFA0B0*%
%FSLAX24Y24*%
%IPPOS*%
%LPD*%
%AMOC8*
5,1,8,0,0,1.08239X$1,22.5*
%
%ADD10C,0.0631*%
%ADD11C,0.0867*%
%ADD12C,0.0040*%
%ADD13C,0.0030*%
%ADD14C,0.0020*%
%ADD15C,0.0820*%
%ADD16R,0.0552X0.0297*%
%ADD17R,0.0631X0.0474*%
%ADD18R,0.0828X0.0631*%
%ADD19R,0.0789X0.0631*%
%ADD20R,0.0395X0.0395*%
%ADD21R,0.0631X0.0631*%
%ADD22R,0.0356X0.0513*%
%ADD23R,0.0316X0.0946*%
%ADD24R,0.0513X0.0356*%
%ADD25R,0.0690X0.0316*%
%ADD26R,0.0789X0.0552*%
%ADD27C,0.1104*%
%ADD28C,0.0640*%
%ADD29C,0.0397*%
%ADD30C,0.0358*%
D10*
X002502Y004277D03*
X007817Y004277D03*
X007817Y009986D03*
X002502Y009986D03*
D11*
X000927Y003194D03*
X000927Y006344D03*
X000927Y007919D03*
X000927Y011069D03*
X014313Y007919D03*
X014313Y006344D03*
X023368Y002407D03*
X015100Y001226D03*
X036360Y006344D03*
X036360Y007919D03*
X023368Y011856D03*
X016675Y011856D03*
X015100Y013037D03*
D12*
X016776Y002112D02*
X017007Y002112D01*
X017083Y002035D01*
X017083Y001882D01*
X017007Y001805D01*
X016776Y001805D01*
X016776Y001651D02*
X016776Y002112D01*
X017237Y002035D02*
X017237Y001728D01*
X017314Y001651D01*
X017467Y001651D01*
X017544Y001728D01*
X017544Y002035D01*
X017467Y002112D01*
X017314Y002112D01*
X017237Y002035D01*
X017697Y002112D02*
X017927Y002112D01*
X018004Y002035D01*
X018004Y001958D01*
X017927Y001882D01*
X017697Y001882D01*
X017697Y002112D02*
X017697Y001651D01*
X017927Y001651D01*
X018004Y001728D01*
X018004Y001805D01*
X017927Y001882D01*
X018158Y002035D02*
X018158Y001728D01*
X018234Y001651D01*
X018388Y001651D01*
X018465Y001728D01*
X018465Y002035D01*
X018388Y002112D01*
X018234Y002112D01*
X018158Y002035D01*
X018618Y002112D02*
X018925Y002112D01*
X018772Y002112D02*
X018772Y001651D01*
X019539Y001651D02*
X019539Y002112D01*
X019846Y002112D01*
X019999Y002112D02*
X020153Y002112D01*
X020076Y002112D02*
X020076Y001651D01*
X019999Y001651D02*
X020153Y001651D01*
X020306Y001728D02*
X020383Y001651D01*
X020536Y001651D01*
X020613Y001728D01*
X020613Y001805D01*
X020536Y001882D01*
X020383Y001882D01*
X020306Y001958D01*
X020306Y002035D01*
X020383Y002112D01*
X020536Y002112D01*
X020613Y002035D01*
X020767Y002112D02*
X020767Y001651D01*
X021073Y001651D02*
X021073Y002112D01*
X021073Y001882D02*
X020767Y001882D01*
X019692Y001882D02*
X019539Y001882D01*
X017083Y001651D02*
X016930Y001805D01*
D13*
X017018Y001517D02*
X017018Y001146D01*
X017140Y001208D02*
X017140Y001332D01*
X017202Y001393D01*
X017325Y001393D01*
X017387Y001332D01*
X017387Y001208D01*
X017325Y001146D01*
X017202Y001146D01*
X017140Y001208D01*
X017018Y001332D02*
X016771Y001332D01*
X016771Y001517D02*
X016771Y001146D01*
X017508Y001023D02*
X017570Y001023D01*
X017632Y001085D01*
X017632Y001393D01*
X017754Y001393D02*
X017754Y001208D01*
X017815Y001146D01*
X018001Y001146D01*
X018001Y001393D01*
X018122Y001393D02*
X018307Y001393D01*
X018369Y001332D01*
X018369Y001146D01*
X018122Y001146D02*
X018122Y001393D01*
X017632Y001517D02*
X017632Y001579D01*
X018859Y001455D02*
X018859Y001393D01*
X018920Y001332D01*
X019044Y001332D01*
X019105Y001270D01*
X019105Y001208D01*
X019044Y001146D01*
X018920Y001146D01*
X018859Y001208D01*
X019227Y001208D02*
X019227Y001332D01*
X019289Y001393D01*
X019412Y001393D01*
X019474Y001332D01*
X019474Y001208D01*
X019412Y001146D01*
X019289Y001146D01*
X019227Y001208D01*
X019595Y001146D02*
X019595Y001393D01*
X019780Y001393D01*
X019842Y001332D01*
X019842Y001146D01*
X019964Y001208D02*
X020025Y001146D01*
X020210Y001146D01*
X020210Y001085D02*
X020210Y001393D01*
X020025Y001393D01*
X019964Y001332D01*
X019964Y001208D01*
X020087Y001023D02*
X020149Y001023D01*
X020210Y001085D01*
X019105Y001455D02*
X019044Y001517D01*
X018920Y001517D01*
X018859Y001455D01*
X024490Y001919D02*
X024560Y001638D01*
X024536Y001732D02*
X024677Y001966D01*
X024811Y001850D02*
X024846Y001909D01*
X024940Y001932D01*
X024998Y001897D01*
X025010Y001850D01*
X024822Y001803D01*
X024834Y001756D02*
X024811Y001850D01*
X024834Y001756D02*
X024893Y001721D01*
X024986Y001744D01*
X025120Y001827D02*
X025096Y001921D01*
X025132Y001980D01*
X025226Y002003D01*
X025284Y001968D01*
X025296Y001921D01*
X025108Y001874D01*
X025120Y001827D02*
X025178Y001792D01*
X025272Y001816D01*
X025417Y001852D02*
X025558Y001887D01*
X025593Y001945D01*
X025570Y002039D01*
X025511Y002075D01*
X025371Y002039D01*
X025441Y001758D01*
X026024Y002053D02*
X026083Y002018D01*
X026024Y002053D02*
X025978Y002241D01*
X026036Y002205D02*
X025942Y002182D01*
X026145Y002183D02*
X026180Y002241D01*
X026274Y002265D01*
X026332Y002229D01*
X026368Y002089D01*
X026454Y002160D02*
X026431Y002254D01*
X026466Y002313D01*
X026560Y002336D01*
X026618Y002301D01*
X026630Y002254D01*
X026442Y002207D01*
X026454Y002160D02*
X026513Y002125D01*
X026607Y002148D01*
X026180Y002042D02*
X026110Y002323D01*
X026967Y002537D02*
X027038Y002256D01*
X027108Y002373D01*
X027225Y002302D01*
X027155Y002584D01*
X027324Y002526D02*
X027417Y002550D01*
X027476Y002515D01*
X027511Y002374D01*
X027370Y002339D01*
X027312Y002374D01*
X027347Y002433D01*
X027488Y002468D01*
X027563Y002586D02*
X027656Y002609D01*
X027598Y002645D02*
X027645Y002457D01*
X027703Y002422D01*
X027788Y002493D02*
X027765Y002587D01*
X027800Y002645D01*
X027894Y002669D01*
X027953Y002633D01*
X027964Y002586D01*
X027777Y002540D01*
X027788Y002493D02*
X027847Y002457D01*
X027941Y002481D01*
X028086Y002517D02*
X028039Y002705D01*
X028062Y002611D02*
X028133Y002728D01*
X028180Y002740D01*
X028551Y002882D02*
X028598Y002695D01*
X028657Y002659D01*
X028751Y002683D01*
X028786Y002741D01*
X028896Y002719D02*
X028990Y002742D01*
X028943Y002731D02*
X028873Y003012D01*
X028826Y003001D01*
X028739Y002929D02*
X028681Y002964D01*
X028587Y002941D01*
X028551Y002882D01*
X029051Y002907D02*
X029087Y002966D01*
X029180Y002989D01*
X029239Y002954D01*
X029251Y002907D01*
X029063Y002860D01*
X029075Y002813D02*
X029051Y002907D01*
X029075Y002813D02*
X029133Y002778D01*
X029227Y002802D01*
X029361Y002885D02*
X029419Y002849D01*
X029560Y002885D01*
X029525Y003025D01*
X029466Y003061D01*
X029373Y003037D01*
X029396Y002943D02*
X029537Y002978D01*
X029658Y002909D02*
X029611Y003097D01*
X029752Y003132D01*
X029811Y003097D01*
X029846Y002956D01*
X029396Y002943D02*
X029361Y002885D01*
X024747Y001685D02*
X024572Y001790D01*
D14*
X022262Y001288D02*
X022188Y001288D01*
X022225Y001325D02*
X022225Y001178D01*
X022262Y001141D01*
X022114Y001141D02*
X022004Y001141D01*
X021967Y001178D01*
X021967Y001252D01*
X022004Y001288D01*
X022114Y001288D01*
X021893Y001325D02*
X021893Y001178D01*
X021857Y001141D01*
X021783Y001141D01*
X021746Y001178D01*
X021746Y001325D01*
X021783Y001362D01*
X021857Y001362D01*
X021893Y001325D01*
X021451Y001362D02*
X021378Y001325D01*
X021304Y001252D01*
X021415Y001252D01*
X021451Y001215D01*
X021451Y001178D01*
X021415Y001141D01*
X021341Y001141D01*
X021304Y001178D01*
X021304Y001252D01*
X021230Y001141D02*
X021083Y001141D01*
X021157Y001141D02*
X021157Y001362D01*
X021083Y001288D01*
X021009Y001325D02*
X020862Y001178D01*
X020899Y001141D01*
X020973Y001141D01*
X021009Y001178D01*
X021009Y001325D01*
X020973Y001362D01*
X020899Y001362D01*
X020862Y001325D01*
X020862Y001178D01*
X020788Y001141D02*
X020641Y001141D01*
X020788Y001288D01*
X020788Y001325D01*
X020752Y001362D01*
X020678Y001362D01*
X020641Y001325D01*
D15*
X024944Y003131D03*
X025944Y003131D03*
X031887Y005131D03*
X031887Y006131D03*
X031887Y007131D03*
X031887Y008131D03*
X031887Y009131D03*
D16*
X020899Y007506D03*
X020899Y007131D03*
X020899Y006757D03*
X019876Y006757D03*
X019876Y007506D03*
D17*
X022954Y006131D03*
X023820Y005757D03*
X023820Y006506D03*
X021358Y004006D03*
X020492Y003631D03*
X021358Y003257D03*
D18*
X021887Y006643D03*
X024762Y006643D03*
D19*
X024762Y005620D03*
X021887Y005620D03*
D20*
X018887Y006689D03*
X018887Y007574D03*
X020092Y008881D03*
X020683Y008881D03*
X025148Y003881D03*
X025739Y003881D03*
D21*
X023866Y007881D03*
X022409Y007881D03*
X022409Y008631D03*
X023866Y008631D03*
X019366Y008381D03*
X017909Y008381D03*
D22*
X020092Y008131D03*
X020683Y008131D03*
X020683Y006131D03*
X020092Y006131D03*
X026592Y005131D03*
X027183Y005131D03*
X027592Y005131D03*
X028183Y005131D03*
X028183Y004381D03*
X027592Y004381D03*
X027183Y004381D03*
X026592Y004381D03*
D23*
X026887Y006108D03*
X027387Y006108D03*
X027887Y006108D03*
X028387Y006108D03*
X028887Y006108D03*
X029387Y006108D03*
X029887Y006108D03*
X029887Y008155D03*
X029387Y008155D03*
X028887Y008155D03*
X028387Y008155D03*
X027887Y008155D03*
X027387Y008155D03*
X026887Y008155D03*
D24*
X026137Y007427D03*
X026137Y006836D03*
X028887Y005177D03*
X029387Y005177D03*
X029887Y005177D03*
X029887Y004586D03*
X029387Y004586D03*
X028887Y004586D03*
X022175Y003927D03*
X022175Y003336D03*
X018137Y006836D03*
X018137Y007427D03*
X028387Y009086D03*
X028887Y009086D03*
X029387Y009211D03*
X029876Y009086D03*
X029876Y009677D03*
X029387Y009802D03*
X028887Y009677D03*
X028387Y009677D03*
D25*
X019675Y004025D03*
X019675Y003631D03*
X019675Y003238D03*
D26*
X018141Y002726D03*
X018141Y004537D03*
D27*
X016675Y006344D03*
X016675Y007919D03*
X034785Y007919D03*
X034785Y006344D03*
D28*
X020712Y010594D03*
X020712Y011381D03*
D29*
X026881Y009131D03*
X029381Y010256D03*
X021506Y007256D03*
X018881Y006131D03*
X020756Y005506D03*
X021881Y005131D03*
X023881Y005131D03*
X024756Y005131D03*
X028256Y003756D03*
X020131Y002631D03*
D30*
X021006Y004631D03*
X021756Y004631D03*
X025881Y004631D03*
X026006Y005256D03*
X026006Y006381D03*
X025506Y006381D03*
X025506Y007006D03*
X026006Y008256D03*
X029381Y008756D03*
X030381Y009506D03*
X028881Y010131D03*
X028381Y010131D03*
X029256Y011006D03*
X028381Y011256D03*
X021131Y008256D03*
X021131Y006381D03*
M02*
