G75*
%MOIN*%
%OFA0B0*%
%FSLAX24Y24*%
%IPPOS*%
%LPD*%
%AMOC8*
5,1,8,0,0,1.08239X$1,22.5*
%
%ADD10C,0.0080*%
%ADD11C,0.0050*%
%ADD12C,0.0060*%
%ADD13C,0.0040*%
%ADD14R,0.0079X0.0394*%
%ADD15C,0.0010*%
%ADD16C,0.0100*%
%ADD17C,0.0070*%
D10*
X018294Y008106D02*
X018981Y008106D01*
X018756Y008381D02*
X018519Y008224D01*
X018519Y008539D01*
X018756Y008381D01*
X018677Y008381D02*
X018559Y008460D01*
X018559Y008303D01*
X018677Y008381D01*
X018668Y008388D02*
X018559Y008388D01*
X018559Y008309D02*
X018568Y008309D01*
X018294Y008657D02*
X018981Y008657D01*
X020332Y008789D02*
X020454Y008881D01*
X020454Y008700D01*
X020454Y008881D02*
X020454Y009063D01*
X020332Y008967D02*
X020448Y008891D01*
X022794Y008907D02*
X023481Y008907D01*
X023256Y008631D02*
X023019Y008789D01*
X023019Y008474D01*
X023256Y008631D01*
X023177Y008631D02*
X023059Y008710D01*
X023059Y008553D01*
X023177Y008631D01*
X023164Y008623D02*
X023059Y008623D01*
X023059Y008702D02*
X023072Y008702D01*
X022794Y008356D02*
X023481Y008356D01*
X023481Y008157D02*
X022794Y008157D01*
X023019Y008039D02*
X023256Y007881D01*
X023019Y007724D01*
X023019Y008039D01*
X023059Y007960D02*
X023177Y007881D01*
X023059Y007803D01*
X023059Y007960D01*
X023059Y007916D02*
X023124Y007916D01*
X023112Y007838D02*
X023059Y007838D01*
X022794Y007606D02*
X023481Y007606D01*
X031387Y007381D02*
X031387Y006881D01*
X031637Y006631D01*
X031387Y006381D01*
X031387Y005881D01*
X031637Y005631D01*
X031387Y005381D01*
X031387Y004881D01*
X031637Y004631D01*
X032137Y004631D01*
X032387Y004881D01*
X032387Y005381D01*
X032137Y005631D01*
X032387Y005881D01*
X032387Y006381D01*
X032137Y006631D01*
X032387Y006881D01*
X032387Y007381D01*
X032137Y007631D01*
X032387Y007881D01*
X032387Y008381D01*
X032137Y008631D01*
X032387Y008881D01*
X032387Y009381D01*
X032137Y009631D01*
X031637Y009631D01*
X031387Y009381D01*
X031387Y008881D01*
X031637Y008631D01*
X031387Y008381D01*
X031387Y007881D01*
X031637Y007631D01*
X031387Y007381D01*
X025510Y004063D02*
X025510Y003881D01*
X025388Y003789D01*
X025510Y003700D02*
X025510Y003881D01*
X025504Y003891D02*
X025388Y003967D01*
D11*
X017214Y004631D02*
X017214Y002631D01*
X018002Y002647D02*
X019675Y002647D01*
X019675Y004616D01*
X018002Y004616D01*
X018002Y002647D01*
X021925Y003159D02*
X021925Y004104D01*
X022425Y004104D01*
X022425Y003159D01*
X021925Y003159D01*
X026219Y003306D02*
X026519Y003306D01*
X026679Y003306D02*
X026979Y003306D01*
X027139Y003306D02*
X027364Y003306D01*
X027440Y003382D01*
X027440Y003682D01*
X027364Y003757D01*
X027139Y003757D01*
X027139Y003306D01*
X026829Y003532D02*
X026679Y003532D01*
X026679Y003757D02*
X026679Y003306D01*
X026219Y003306D02*
X026219Y003757D01*
X026679Y003757D02*
X026979Y003757D01*
X027360Y004131D02*
X026415Y004131D01*
X026415Y004631D01*
X027360Y004631D01*
X027360Y004131D01*
X027415Y004131D02*
X027415Y004631D01*
X028360Y004631D01*
X028360Y004131D01*
X027415Y004131D01*
X027675Y003757D02*
X027825Y003757D01*
X027900Y003682D01*
X027900Y003607D01*
X027825Y003532D01*
X027900Y003457D01*
X027900Y003382D01*
X027825Y003306D01*
X027675Y003306D01*
X027600Y003382D01*
X027750Y003532D02*
X027825Y003532D01*
X027600Y003682D02*
X027675Y003757D01*
X028637Y004409D02*
X028637Y005354D01*
X029137Y005354D01*
X029637Y005354D01*
X030137Y005354D01*
X030137Y004409D01*
X029637Y004409D01*
X029637Y005354D01*
X029637Y004409D01*
X029137Y004409D01*
X029137Y005354D01*
X029137Y004409D01*
X028637Y004409D01*
X028360Y004881D02*
X027415Y004881D01*
X027415Y005381D01*
X028360Y005381D01*
X028360Y004881D01*
X027360Y004881D02*
X027360Y005381D01*
X026415Y005381D01*
X026415Y004881D01*
X027360Y004881D01*
X025077Y005502D02*
X024447Y005502D01*
X024447Y006761D01*
X025077Y006761D01*
X025077Y005502D01*
X025887Y006659D02*
X026387Y006659D01*
X026387Y007604D01*
X025887Y007604D01*
X025887Y006659D01*
X022202Y006761D02*
X022202Y005502D01*
X021572Y005502D01*
X021572Y006761D01*
X022202Y006761D01*
X020860Y006381D02*
X020860Y005881D01*
X019915Y005881D01*
X019915Y006381D01*
X020860Y006381D01*
X019163Y006777D02*
X018612Y006777D01*
X018612Y007486D01*
X019163Y007486D01*
X019163Y006777D01*
X018387Y006659D02*
X017887Y006659D01*
X017887Y007604D01*
X018387Y007604D01*
X018387Y006659D01*
X017521Y006869D02*
X017221Y006869D01*
X017521Y007169D01*
X017521Y007244D01*
X017446Y007319D01*
X017296Y007319D01*
X017221Y007244D01*
X017060Y007244D02*
X017060Y007094D01*
X016985Y007019D01*
X016760Y007019D01*
X016760Y006869D02*
X016760Y007319D01*
X016985Y007319D01*
X017060Y007244D01*
X016600Y007319D02*
X016300Y007319D01*
X016450Y007319D02*
X016450Y006869D01*
X019915Y007881D02*
X019915Y008381D01*
X020860Y008381D01*
X020860Y007881D01*
X019915Y007881D01*
X017521Y008444D02*
X017221Y008444D01*
X017371Y008444D02*
X017371Y008894D01*
X017221Y008744D01*
X017060Y008669D02*
X016985Y008594D01*
X016760Y008594D01*
X016760Y008444D02*
X016760Y008894D01*
X016985Y008894D01*
X017060Y008819D01*
X017060Y008669D01*
X016450Y008444D02*
X016450Y008894D01*
X016300Y008894D02*
X016600Y008894D01*
X020830Y010122D02*
X020830Y011815D01*
X021263Y011815D01*
X021263Y011854D01*
X019374Y011106D02*
X018232Y011106D01*
X018232Y010870D02*
X019374Y010870D01*
X019374Y011106D01*
X020830Y010122D02*
X021263Y010122D01*
X028137Y009854D02*
X028137Y008909D01*
X028637Y008909D01*
X029137Y008909D01*
X029137Y009854D01*
X028637Y009854D01*
X028637Y008909D01*
X028637Y009854D01*
X028137Y009854D01*
X029137Y009979D02*
X029637Y009979D01*
X029637Y009034D01*
X029137Y009034D01*
X029137Y009979D01*
X029626Y009854D02*
X030126Y009854D01*
X030126Y008909D01*
X029626Y008909D01*
X029626Y009854D01*
X033810Y008690D02*
X033810Y008540D01*
X033885Y008465D01*
X033885Y008305D02*
X034035Y008305D01*
X034110Y008229D01*
X034110Y008004D01*
X034260Y008004D02*
X033810Y008004D01*
X033810Y008229D01*
X033885Y008305D01*
X034185Y008465D02*
X034260Y008540D01*
X034260Y008690D01*
X034185Y008765D01*
X034110Y008765D01*
X034035Y008690D01*
X034035Y008615D01*
X034035Y008690D02*
X033960Y008765D01*
X033885Y008765D01*
X033810Y008690D01*
X033810Y007844D02*
X033810Y007544D01*
X033810Y007694D02*
X034260Y007694D01*
X034035Y007190D02*
X034035Y006890D01*
X033810Y007115D01*
X034260Y007115D01*
X034035Y006730D02*
X033885Y006730D01*
X033810Y006655D01*
X033810Y006429D01*
X034260Y006429D01*
X034110Y006429D02*
X034110Y006655D01*
X034035Y006730D01*
X033810Y006269D02*
X033810Y005969D01*
X033810Y006119D02*
X034260Y006119D01*
X031142Y005848D02*
X031142Y005547D01*
X031142Y005697D02*
X030692Y005697D01*
X030842Y005547D01*
X030767Y005387D02*
X030917Y005387D01*
X030992Y005312D01*
X030992Y005087D01*
X031142Y005087D02*
X030692Y005087D01*
X030692Y005312D01*
X030767Y005387D01*
X030692Y004927D02*
X030692Y004777D01*
X030692Y004852D02*
X031067Y004852D01*
X031142Y004777D01*
X031142Y004702D01*
X031067Y004626D01*
D12*
X023546Y007235D02*
X023503Y007191D01*
X023416Y007191D01*
X023373Y007235D01*
X023252Y007235D02*
X023252Y007408D01*
X023208Y007452D01*
X023078Y007452D01*
X023078Y007191D01*
X023208Y007191D01*
X023252Y007235D01*
X023373Y007408D02*
X023416Y007452D01*
X023503Y007452D01*
X023546Y007408D01*
X023546Y007365D01*
X023503Y007322D01*
X023546Y007278D01*
X023546Y007235D01*
X023503Y007322D02*
X023459Y007322D01*
X023373Y007941D02*
X023546Y008115D01*
X023546Y008158D01*
X023503Y008202D01*
X023416Y008202D01*
X023373Y008158D01*
X023252Y008158D02*
X023208Y008202D01*
X023078Y008202D01*
X023078Y007941D01*
X023208Y007941D01*
X023252Y007985D01*
X023252Y008158D01*
X023373Y007941D02*
X023546Y007941D01*
X020706Y007691D02*
X020706Y007654D01*
X020706Y007691D02*
X020069Y007691D01*
X020069Y007654D01*
X020069Y007337D02*
X020069Y006926D01*
X020069Y006609D02*
X020069Y006572D01*
X020706Y006572D01*
X020706Y006609D01*
X020706Y006926D02*
X020706Y006963D01*
X020706Y007300D02*
X020706Y007337D01*
X019046Y007691D02*
X018873Y007691D01*
X018959Y007691D02*
X018959Y007952D01*
X018873Y007865D01*
X018752Y007908D02*
X018708Y007952D01*
X018578Y007952D01*
X018578Y007691D01*
X018708Y007691D01*
X018752Y007735D01*
X018752Y007908D01*
X023127Y006691D02*
X023127Y006471D01*
X023127Y006691D02*
X023447Y006691D01*
X023127Y005791D02*
X023127Y005571D01*
X023447Y005571D01*
X020985Y004191D02*
X020665Y004191D01*
X020665Y003971D01*
X020665Y003291D02*
X020665Y003071D01*
X020985Y003071D01*
D13*
X021344Y003301D02*
X021344Y003532D01*
X021421Y003608D01*
X021575Y003608D01*
X021651Y003532D01*
X021651Y003301D01*
X021805Y003301D02*
X021344Y003301D01*
X021651Y003455D02*
X021805Y003608D01*
X021805Y003762D02*
X021805Y004069D01*
X021805Y003915D02*
X021344Y003915D01*
X021498Y003762D01*
X021575Y004222D02*
X021575Y004529D01*
X021805Y004452D02*
X021344Y004452D01*
X021575Y004222D01*
X021155Y004231D02*
X020694Y004538D01*
X020848Y004691D02*
X020694Y004845D01*
X021155Y004845D01*
X021155Y004998D02*
X021155Y004691D01*
X021155Y004538D02*
X020694Y004231D01*
X020155Y004129D02*
X020155Y003822D01*
X020155Y003669D02*
X020001Y003515D01*
X020001Y003592D02*
X020001Y003362D01*
X020155Y003362D02*
X019694Y003362D01*
X019694Y003592D01*
X019771Y003669D01*
X019925Y003669D01*
X020001Y003592D01*
X019848Y003822D02*
X019694Y003976D01*
X020155Y003976D01*
X019694Y003208D02*
X019694Y002901D01*
X019694Y003055D02*
X020155Y003055D01*
X020144Y005301D02*
X019990Y005455D01*
X020067Y005455D02*
X019837Y005455D01*
X019837Y005301D02*
X019837Y005762D01*
X020067Y005762D01*
X020144Y005685D01*
X020144Y005532D01*
X020067Y005455D01*
X020297Y005532D02*
X020450Y005608D01*
X020527Y005608D01*
X020604Y005532D01*
X020604Y005378D01*
X020527Y005301D01*
X020374Y005301D01*
X020297Y005378D01*
X020297Y005532D02*
X020297Y005762D01*
X020604Y005762D01*
X019617Y006478D02*
X019541Y006401D01*
X019157Y006401D01*
X019617Y006478D02*
X019617Y006632D01*
X019541Y006708D01*
X019157Y006708D01*
X019234Y006862D02*
X019157Y006939D01*
X019157Y007092D01*
X019234Y007169D01*
X019310Y007169D01*
X019617Y006862D01*
X019617Y007169D01*
X019837Y007301D02*
X019837Y007762D01*
X020067Y007762D01*
X020144Y007685D01*
X020144Y007532D01*
X020067Y007455D01*
X019837Y007455D01*
X019990Y007455D02*
X020144Y007301D01*
X020297Y007301D02*
X020297Y007378D01*
X020604Y007685D01*
X020604Y007762D01*
X020297Y007762D01*
X021887Y007248D02*
X021887Y006941D01*
X021734Y007095D02*
X022041Y007095D01*
X022307Y007021D02*
X022384Y007098D01*
X022460Y007098D01*
X022537Y007021D01*
X022614Y007098D01*
X022691Y007098D01*
X022767Y007021D01*
X022767Y006868D01*
X022691Y006791D01*
X022691Y006638D02*
X022767Y006561D01*
X022767Y006407D01*
X022691Y006331D01*
X022384Y006331D01*
X022307Y006407D01*
X022307Y006561D01*
X022384Y006638D01*
X022384Y006791D02*
X022307Y006868D01*
X022307Y007021D01*
X022537Y007021D02*
X022537Y006945D01*
X022541Y006169D02*
X022617Y006092D01*
X022617Y005939D01*
X022541Y005862D01*
X022541Y005708D02*
X022157Y005708D01*
X022234Y005862D02*
X022157Y005939D01*
X022157Y006092D01*
X022234Y006169D01*
X022310Y006169D01*
X022387Y006092D01*
X022464Y006169D01*
X022541Y006169D01*
X022387Y006092D02*
X022387Y006015D01*
X022541Y005708D02*
X022617Y005632D01*
X022617Y005478D01*
X022541Y005401D01*
X022157Y005401D01*
X025182Y006407D02*
X025182Y006561D01*
X025259Y006638D01*
X025384Y006801D02*
X025691Y006801D01*
X025767Y006878D01*
X025767Y007032D01*
X025691Y007108D01*
X025642Y007021D02*
X025182Y007021D01*
X025412Y006791D01*
X025412Y007098D01*
X025384Y007108D02*
X025307Y007032D01*
X025307Y006878D01*
X025384Y006801D01*
X025566Y006638D02*
X025642Y006561D01*
X025642Y006407D01*
X025566Y006331D01*
X025259Y006331D01*
X025182Y006407D01*
X026107Y006401D02*
X026491Y006401D01*
X026567Y006478D01*
X026567Y006632D01*
X026491Y006708D01*
X026107Y006708D01*
X026260Y006862D02*
X026107Y007015D01*
X026567Y007015D01*
X026567Y006862D02*
X026567Y007169D01*
X025767Y007262D02*
X025460Y007569D01*
X025384Y007569D01*
X025307Y007492D01*
X025307Y007339D01*
X025384Y007262D01*
X025767Y007262D02*
X025767Y007569D01*
X024762Y007248D02*
X024762Y006941D01*
X024609Y007095D02*
X024916Y007095D01*
X027557Y005885D02*
X027557Y005578D01*
X027634Y005501D01*
X027788Y005501D01*
X027864Y005578D01*
X028018Y005501D02*
X028325Y005501D01*
X028171Y005501D02*
X028171Y005962D01*
X028018Y005808D01*
X027864Y005885D02*
X027788Y005962D01*
X027634Y005962D01*
X027557Y005885D01*
X029257Y005021D02*
X029334Y005098D01*
X029410Y005098D01*
X029487Y005021D01*
X029564Y005098D01*
X029641Y005098D01*
X029717Y005021D01*
X029717Y004868D01*
X029641Y004791D01*
X029717Y004638D02*
X029564Y004484D01*
X029564Y004561D02*
X029564Y004331D01*
X029717Y004331D02*
X029257Y004331D01*
X029257Y004561D01*
X029334Y004638D01*
X029487Y004638D01*
X029564Y004561D01*
X029757Y004561D02*
X029834Y004638D01*
X029987Y004638D01*
X030064Y004561D01*
X030064Y004331D01*
X030064Y004484D02*
X030217Y004638D01*
X030257Y004561D02*
X030334Y004638D01*
X030487Y004638D01*
X030564Y004561D01*
X030564Y004331D01*
X030564Y004484D02*
X030717Y004638D01*
X030641Y004791D02*
X030487Y004791D01*
X030487Y005021D01*
X030564Y005098D01*
X030641Y005098D01*
X030717Y005021D01*
X030717Y004868D01*
X030641Y004791D01*
X030487Y004791D02*
X030334Y004945D01*
X030257Y005098D01*
X030217Y005021D02*
X029757Y005021D01*
X029987Y004791D01*
X029987Y005098D01*
X029487Y005021D02*
X029487Y004945D01*
X029334Y004791D02*
X029257Y004868D01*
X029257Y005021D01*
X029757Y004561D02*
X029757Y004331D01*
X030217Y004331D01*
X030257Y004331D02*
X030257Y004561D01*
X030257Y004331D02*
X030717Y004331D01*
X028104Y003935D02*
X028104Y003628D01*
X028027Y003551D01*
X027874Y003551D01*
X027797Y003628D01*
X027644Y003551D02*
X027490Y003705D01*
X027567Y003705D02*
X027337Y003705D01*
X027337Y003551D02*
X027337Y004012D01*
X027567Y004012D01*
X027644Y003935D01*
X027644Y003782D01*
X027567Y003705D01*
X027797Y003858D02*
X027874Y003782D01*
X028104Y003782D01*
X028104Y003935D02*
X028027Y004012D01*
X027874Y004012D01*
X027797Y003935D01*
X027797Y003858D01*
X027104Y003858D02*
X027027Y003782D01*
X026874Y003782D01*
X026797Y003858D01*
X026797Y003935D01*
X026874Y004012D01*
X027027Y004012D01*
X027104Y003935D01*
X027104Y003858D01*
X027027Y003782D02*
X027104Y003705D01*
X027104Y003628D01*
X027027Y003551D01*
X026874Y003551D01*
X026797Y003628D01*
X026797Y003705D01*
X026874Y003782D01*
X026644Y003782D02*
X026567Y003705D01*
X026337Y003705D01*
X026490Y003705D02*
X026644Y003551D01*
X026337Y003551D02*
X026337Y004012D01*
X026567Y004012D01*
X026644Y003935D01*
X026644Y003782D01*
X026644Y004301D02*
X026490Y004455D01*
X026567Y004455D02*
X026337Y004455D01*
X026337Y004301D02*
X026337Y004762D01*
X026567Y004762D01*
X026644Y004685D01*
X026644Y004532D01*
X026567Y004455D01*
X026797Y004608D02*
X026950Y004762D01*
X026950Y004301D01*
X026797Y004301D02*
X027104Y004301D01*
X018367Y006305D02*
X017907Y006305D01*
X017907Y006458D02*
X017907Y006151D01*
X017907Y006612D02*
X018214Y006612D01*
X018367Y006765D01*
X018214Y006919D01*
X017907Y006919D01*
X017984Y007072D02*
X018060Y007072D01*
X018137Y007149D01*
X018137Y007302D01*
X018214Y007379D01*
X018291Y007379D01*
X018367Y007302D01*
X018367Y007149D01*
X018291Y007072D01*
X017984Y007072D02*
X017907Y007149D01*
X017907Y007302D01*
X017984Y007379D01*
X018060Y007533D02*
X017907Y007686D01*
X018367Y007686D01*
X018367Y007533D02*
X018367Y007840D01*
X017767Y007569D02*
X017767Y007262D01*
X017460Y007569D01*
X017384Y007569D01*
X017307Y007492D01*
X017307Y007339D01*
X017384Y007262D01*
X017384Y007108D02*
X017537Y007108D01*
X017614Y007032D01*
X017614Y006801D01*
X017767Y006801D02*
X017307Y006801D01*
X017307Y007032D01*
X017384Y007108D01*
X017614Y006955D02*
X017767Y007108D01*
X021728Y010022D02*
X021805Y009945D01*
X022112Y009945D01*
X022188Y010022D01*
X022188Y010175D01*
X022112Y010252D01*
X022188Y010405D02*
X021728Y010405D01*
X022188Y010712D01*
X021728Y010712D01*
X021881Y010866D02*
X021728Y011019D01*
X022188Y011019D01*
X022188Y010866D02*
X022188Y011173D01*
X021805Y010252D02*
X021728Y010175D01*
X021728Y010022D01*
X027557Y010126D02*
X028017Y010126D01*
X028057Y010202D02*
X028057Y010049D01*
X028134Y009972D01*
X028017Y009972D02*
X028017Y010279D01*
X028057Y010202D02*
X028134Y010279D01*
X028210Y010279D01*
X028517Y009972D01*
X028517Y010279D01*
X027710Y009972D02*
X027557Y010126D01*
X028017Y009819D02*
X028017Y009512D01*
X028017Y009665D02*
X027557Y009665D01*
X027710Y009512D01*
X027634Y009358D02*
X027557Y009282D01*
X027557Y009051D01*
X028017Y009051D01*
X028057Y009051D02*
X028057Y009282D01*
X028134Y009358D01*
X028287Y009358D01*
X028364Y009282D01*
X028364Y009051D01*
X028517Y009051D02*
X028057Y009051D01*
X027864Y009051D02*
X027864Y009282D01*
X027787Y009358D01*
X027634Y009358D01*
X027864Y009205D02*
X028017Y009358D01*
X028210Y009512D02*
X028057Y009665D01*
X028517Y009665D01*
X028517Y009512D02*
X028517Y009819D01*
X028517Y009358D02*
X028364Y009205D01*
X029757Y009109D02*
X030217Y009109D01*
X030245Y008984D02*
X030706Y008984D01*
X030706Y008831D02*
X030706Y009138D01*
X030629Y009291D02*
X030322Y009291D01*
X030245Y009368D01*
X030245Y009521D01*
X030322Y009598D01*
X030629Y009291D01*
X030706Y009368D01*
X030706Y009521D01*
X030629Y009598D01*
X030322Y009598D01*
X030217Y009646D02*
X030217Y009493D01*
X030141Y009416D01*
X029987Y009570D02*
X029987Y009646D01*
X030064Y009723D01*
X030141Y009723D01*
X030217Y009646D01*
X029987Y009646D02*
X029910Y009723D01*
X029834Y009723D01*
X029757Y009646D01*
X029757Y009493D01*
X029834Y009416D01*
X030217Y009263D02*
X030217Y008956D01*
X030245Y008984D02*
X030399Y008831D01*
X030475Y008677D02*
X030552Y008601D01*
X030552Y008370D01*
X030706Y008370D02*
X030245Y008370D01*
X030245Y008601D01*
X030322Y008677D01*
X030475Y008677D01*
X030552Y008524D02*
X030706Y008677D01*
X030217Y008802D02*
X030064Y008649D01*
X030064Y008726D02*
X030064Y008495D01*
X030217Y008495D02*
X029757Y008495D01*
X029757Y008726D01*
X029834Y008802D01*
X029987Y008802D01*
X030064Y008726D01*
X029910Y008956D02*
X029757Y009109D01*
D14*
X023295Y008631D03*
X023295Y007881D03*
X018795Y008381D03*
D15*
X020042Y009161D02*
X020142Y009161D01*
X020190Y009161D02*
X020290Y009161D01*
X020337Y009161D02*
X020412Y009161D01*
X020437Y009187D01*
X020437Y009287D01*
X020412Y009312D01*
X020337Y009312D01*
X020337Y009161D01*
X020240Y009237D02*
X020190Y009237D01*
X020190Y009312D02*
X020190Y009161D01*
X020042Y009161D02*
X020042Y009312D01*
X020190Y009312D02*
X020290Y009312D01*
X020484Y009287D02*
X020509Y009312D01*
X020559Y009312D01*
X020584Y009287D01*
X020584Y009262D01*
X020484Y009161D01*
X020584Y009161D01*
X025099Y004312D02*
X025099Y004161D01*
X025199Y004161D01*
X025246Y004161D02*
X025346Y004161D01*
X025393Y004161D02*
X025468Y004161D01*
X025493Y004187D01*
X025493Y004287D01*
X025468Y004312D01*
X025393Y004312D01*
X025393Y004161D01*
X025296Y004237D02*
X025246Y004237D01*
X025246Y004312D02*
X025246Y004161D01*
X025246Y004312D02*
X025346Y004312D01*
X025540Y004262D02*
X025591Y004312D01*
X025591Y004161D01*
X025641Y004161D02*
X025540Y004161D01*
X025448Y002287D02*
X025448Y002377D01*
X025449Y002376D02*
X025503Y002378D01*
X025556Y002384D01*
X025609Y002394D01*
X025661Y002408D01*
X025712Y002425D01*
X025762Y002446D01*
X025810Y002470D01*
X025856Y002498D01*
X025900Y002529D01*
X025941Y002563D01*
X025981Y002600D01*
X026017Y002639D01*
X026085Y002582D01*
X026086Y002581D01*
X026048Y002540D01*
X026008Y002502D01*
X025965Y002466D01*
X025920Y002433D01*
X025873Y002403D01*
X025825Y002377D01*
X025774Y002353D01*
X025722Y002333D01*
X025669Y002317D01*
X025615Y002303D01*
X025560Y002294D01*
X025505Y002288D01*
X025449Y002286D01*
X025449Y002295D01*
X025504Y002297D01*
X025559Y002303D01*
X025613Y002312D01*
X025667Y002325D01*
X025719Y002342D01*
X025771Y002361D01*
X025821Y002385D01*
X025869Y002411D01*
X025915Y002441D01*
X025960Y002473D01*
X026002Y002508D01*
X026042Y002547D01*
X026079Y002587D01*
X026072Y002593D01*
X026035Y002553D01*
X025996Y002515D01*
X025954Y002480D01*
X025910Y002448D01*
X025864Y002419D01*
X025816Y002393D01*
X025767Y002370D01*
X025716Y002350D01*
X025664Y002334D01*
X025611Y002321D01*
X025558Y002312D01*
X025503Y002306D01*
X025449Y002304D01*
X025449Y002313D01*
X025503Y002315D01*
X025556Y002321D01*
X025609Y002330D01*
X025662Y002343D01*
X025713Y002359D01*
X025764Y002378D01*
X025812Y002401D01*
X025860Y002426D01*
X025905Y002455D01*
X025949Y002487D01*
X025990Y002522D01*
X026029Y002559D01*
X026065Y002599D01*
X026058Y002605D01*
X026022Y002565D01*
X025984Y002528D01*
X025943Y002494D01*
X025900Y002463D01*
X025855Y002434D01*
X025808Y002409D01*
X025760Y002386D01*
X025710Y002367D01*
X025659Y002351D01*
X025608Y002339D01*
X025555Y002330D01*
X025502Y002324D01*
X025449Y002322D01*
X025449Y002331D01*
X025502Y002333D01*
X025554Y002339D01*
X025606Y002348D01*
X025657Y002360D01*
X025707Y002376D01*
X025757Y002395D01*
X025804Y002417D01*
X025851Y002442D01*
X025895Y002470D01*
X025937Y002501D01*
X025978Y002535D01*
X026016Y002572D01*
X026051Y002610D01*
X026045Y002616D01*
X026009Y002578D01*
X025972Y002542D01*
X025932Y002508D01*
X025890Y002478D01*
X025846Y002450D01*
X025800Y002425D01*
X025753Y002403D01*
X025704Y002384D01*
X025655Y002369D01*
X025604Y002356D01*
X025553Y002348D01*
X025501Y002342D01*
X025449Y002340D01*
X025449Y002349D01*
X025505Y002351D01*
X025560Y002358D01*
X025615Y002368D01*
X025669Y002382D01*
X025722Y002400D01*
X025773Y002422D01*
X025823Y002447D01*
X025871Y002476D01*
X025916Y002508D01*
X025959Y002543D01*
X026000Y002581D01*
X026038Y002622D01*
X026031Y002628D01*
X025994Y002587D01*
X025953Y002550D01*
X025911Y002515D01*
X025866Y002483D01*
X025818Y002455D01*
X025769Y002430D01*
X025718Y002408D01*
X025666Y002391D01*
X025613Y002377D01*
X025559Y002367D01*
X025504Y002360D01*
X025449Y002358D01*
X025449Y002367D01*
X025503Y002369D01*
X025557Y002375D01*
X025611Y002385D01*
X025664Y002399D01*
X025715Y002417D01*
X025765Y002438D01*
X025814Y002463D01*
X025861Y002491D01*
X025905Y002522D01*
X025947Y002556D01*
X025987Y002594D01*
X026024Y002634D01*
X025439Y003975D02*
X025439Y003885D01*
X025439Y003886D02*
X025385Y003884D01*
X025332Y003878D01*
X025279Y003868D01*
X025227Y003854D01*
X025176Y003837D01*
X025127Y003816D01*
X025079Y003792D01*
X025033Y003764D01*
X024989Y003733D01*
X024947Y003699D01*
X024908Y003663D01*
X024871Y003623D01*
X024838Y003581D01*
X024807Y003537D01*
X024780Y003491D01*
X024701Y003533D01*
X024729Y003582D01*
X024761Y003628D01*
X024796Y003673D01*
X024833Y003715D01*
X024874Y003755D01*
X024917Y003791D01*
X024962Y003825D01*
X025009Y003856D01*
X025059Y003883D01*
X025110Y003907D01*
X025162Y003928D01*
X025216Y003945D01*
X025271Y003958D01*
X025326Y003968D01*
X025383Y003974D01*
X025439Y003976D01*
X025439Y003967D01*
X025383Y003965D01*
X025328Y003959D01*
X025273Y003949D01*
X025218Y003936D01*
X025165Y003919D01*
X025113Y003899D01*
X025063Y003875D01*
X025014Y003848D01*
X024967Y003818D01*
X024922Y003784D01*
X024880Y003748D01*
X024840Y003709D01*
X024803Y003667D01*
X024768Y003623D01*
X024737Y003577D01*
X024709Y003529D01*
X024717Y003525D01*
X024745Y003572D01*
X024776Y003618D01*
X024810Y003661D01*
X024846Y003703D01*
X024886Y003741D01*
X024928Y003777D01*
X024972Y003810D01*
X025018Y003840D01*
X025067Y003867D01*
X025117Y003890D01*
X025168Y003911D01*
X025221Y003927D01*
X025274Y003940D01*
X025329Y003950D01*
X025384Y003956D01*
X025439Y003958D01*
X025439Y003949D01*
X025384Y003947D01*
X025330Y003941D01*
X025276Y003932D01*
X025223Y003919D01*
X025171Y003902D01*
X025120Y003882D01*
X025071Y003859D01*
X025023Y003832D01*
X024977Y003803D01*
X024933Y003770D01*
X024892Y003735D01*
X024853Y003696D01*
X024816Y003656D01*
X024783Y003613D01*
X024752Y003567D01*
X024725Y003520D01*
X024733Y003516D01*
X024760Y003563D01*
X024790Y003607D01*
X024823Y003650D01*
X024859Y003690D01*
X024898Y003728D01*
X024939Y003763D01*
X024982Y003795D01*
X025028Y003825D01*
X025075Y003851D01*
X025124Y003874D01*
X025174Y003894D01*
X025226Y003910D01*
X025278Y003923D01*
X025331Y003932D01*
X025385Y003938D01*
X025439Y003940D01*
X025439Y003931D01*
X025386Y003929D01*
X025333Y003923D01*
X025280Y003914D01*
X025228Y003901D01*
X025177Y003885D01*
X025127Y003866D01*
X025079Y003843D01*
X025032Y003817D01*
X024988Y003788D01*
X024945Y003756D01*
X024904Y003721D01*
X024866Y003684D01*
X024830Y003644D01*
X024797Y003602D01*
X024767Y003558D01*
X024740Y003512D01*
X024748Y003508D01*
X024775Y003553D01*
X024805Y003597D01*
X024837Y003638D01*
X024872Y003678D01*
X024910Y003715D01*
X024950Y003749D01*
X024993Y003781D01*
X025037Y003809D01*
X025083Y003835D01*
X025131Y003857D01*
X025180Y003877D01*
X025230Y003893D01*
X025282Y003905D01*
X025334Y003914D01*
X025386Y003920D01*
X025439Y003922D01*
X025439Y003913D01*
X025383Y003911D01*
X025328Y003904D01*
X025273Y003894D01*
X025219Y003880D01*
X025167Y003862D01*
X025115Y003841D01*
X025066Y003815D01*
X025018Y003787D01*
X024972Y003755D01*
X024929Y003720D01*
X024889Y003682D01*
X024851Y003641D01*
X024816Y003597D01*
X024785Y003551D01*
X024756Y003503D01*
X024764Y003499D01*
X024792Y003547D01*
X024823Y003592D01*
X024858Y003635D01*
X024895Y003675D01*
X024935Y003713D01*
X024978Y003748D01*
X025023Y003779D01*
X025070Y003808D01*
X025119Y003832D01*
X025170Y003854D01*
X025222Y003871D01*
X025275Y003885D01*
X025329Y003895D01*
X025384Y003902D01*
X025439Y003904D01*
X025439Y003895D01*
X025385Y003893D01*
X025331Y003887D01*
X025277Y003877D01*
X025225Y003863D01*
X025173Y003845D01*
X025123Y003824D01*
X025074Y003800D01*
X025028Y003772D01*
X024983Y003740D01*
X024941Y003706D01*
X024902Y003669D01*
X024865Y003629D01*
X024831Y003587D01*
X024800Y003542D01*
X024772Y003495D01*
X024712Y002708D02*
X024790Y002753D01*
X024790Y002752D02*
X024818Y002708D01*
X024849Y002666D01*
X024882Y002626D01*
X024918Y002588D01*
X024957Y002553D01*
X024998Y002521D01*
X025042Y002491D01*
X025087Y002465D01*
X025134Y002442D01*
X025182Y002422D01*
X025232Y002406D01*
X025282Y002393D01*
X025334Y002384D01*
X025386Y002378D01*
X025438Y002376D01*
X025439Y002287D01*
X025438Y002286D01*
X025383Y002288D01*
X025329Y002294D01*
X025274Y002303D01*
X025221Y002316D01*
X025169Y002332D01*
X025117Y002351D01*
X025067Y002374D01*
X025019Y002400D01*
X024972Y002429D01*
X024928Y002461D01*
X024885Y002496D01*
X024845Y002534D01*
X024808Y002574D01*
X024773Y002616D01*
X024741Y002661D01*
X024712Y002707D01*
X024720Y002712D01*
X024748Y002666D01*
X024780Y002622D01*
X024815Y002580D01*
X024852Y002540D01*
X024891Y002503D01*
X024933Y002468D01*
X024977Y002437D01*
X025023Y002408D01*
X025071Y002382D01*
X025121Y002360D01*
X025171Y002340D01*
X025223Y002324D01*
X025276Y002312D01*
X025330Y002303D01*
X025384Y002297D01*
X025438Y002295D01*
X025438Y002304D01*
X025384Y002306D01*
X025331Y002312D01*
X025278Y002321D01*
X025226Y002333D01*
X025174Y002349D01*
X025124Y002368D01*
X025075Y002390D01*
X025028Y002416D01*
X024982Y002444D01*
X024939Y002476D01*
X024897Y002510D01*
X024858Y002546D01*
X024821Y002586D01*
X024787Y002627D01*
X024756Y002671D01*
X024727Y002716D01*
X024735Y002721D01*
X024765Y002673D01*
X024799Y002627D01*
X024835Y002584D01*
X024875Y002543D01*
X024917Y002505D01*
X024961Y002470D01*
X025008Y002438D01*
X025057Y002410D01*
X025108Y002385D01*
X025161Y002363D01*
X025214Y002346D01*
X025269Y002332D01*
X025325Y002322D01*
X025381Y002315D01*
X025438Y002313D01*
X025438Y002322D01*
X025382Y002324D01*
X025326Y002330D01*
X025271Y002340D01*
X025217Y002354D01*
X025164Y002372D01*
X025112Y002393D01*
X025061Y002418D01*
X025013Y002446D01*
X024967Y002477D01*
X024922Y002512D01*
X024881Y002549D01*
X024842Y002590D01*
X024806Y002632D01*
X024773Y002678D01*
X024743Y002725D01*
X024751Y002730D01*
X024780Y002683D01*
X024813Y002638D01*
X024849Y002596D01*
X024887Y002556D01*
X024928Y002519D01*
X024972Y002484D01*
X025018Y002453D01*
X025066Y002426D01*
X025115Y002401D01*
X025167Y002380D01*
X025219Y002363D01*
X025273Y002349D01*
X025328Y002339D01*
X025383Y002333D01*
X025438Y002331D01*
X025438Y002340D01*
X025383Y002342D01*
X025329Y002348D01*
X025275Y002358D01*
X025222Y002372D01*
X025170Y002389D01*
X025119Y002409D01*
X025070Y002434D01*
X025023Y002461D01*
X024977Y002492D01*
X024934Y002525D01*
X024893Y002562D01*
X024855Y002602D01*
X024820Y002644D01*
X024788Y002688D01*
X024759Y002734D01*
X024767Y002739D01*
X024795Y002693D01*
X024827Y002649D01*
X024862Y002608D01*
X024900Y002569D01*
X024940Y002532D01*
X024982Y002499D01*
X025027Y002469D01*
X025074Y002441D01*
X025123Y002418D01*
X025173Y002397D01*
X025224Y002380D01*
X025277Y002367D01*
X025330Y002357D01*
X025384Y002351D01*
X025438Y002349D01*
X025438Y002358D01*
X025385Y002360D01*
X025331Y002366D01*
X025279Y002376D01*
X025227Y002389D01*
X025176Y002406D01*
X025126Y002426D01*
X025078Y002449D01*
X025032Y002476D01*
X024988Y002506D01*
X024946Y002539D01*
X024906Y002575D01*
X024869Y002614D01*
X024834Y002655D01*
X024803Y002698D01*
X024774Y002743D01*
X024782Y002748D01*
X024810Y002703D01*
X024841Y002660D01*
X024875Y002620D01*
X024912Y002582D01*
X024951Y002546D01*
X024993Y002514D01*
X025037Y002484D01*
X025083Y002457D01*
X025130Y002434D01*
X025179Y002414D01*
X025229Y002397D01*
X025281Y002384D01*
X025333Y002375D01*
X025385Y002369D01*
X025438Y002367D01*
X026089Y003675D02*
X026020Y003618D01*
X026021Y003618D02*
X025984Y003658D01*
X025945Y003696D01*
X025903Y003730D01*
X025859Y003762D01*
X025813Y003790D01*
X025764Y003815D01*
X025714Y003836D01*
X025663Y003854D01*
X025610Y003867D01*
X025557Y003877D01*
X025503Y003884D01*
X025449Y003886D01*
X025448Y003975D01*
X025449Y003976D01*
X025505Y003974D01*
X025561Y003968D01*
X025616Y003958D01*
X025671Y003945D01*
X025724Y003928D01*
X025777Y003908D01*
X025828Y003884D01*
X025877Y003857D01*
X025924Y003826D01*
X025969Y003793D01*
X026012Y003757D01*
X026052Y003718D01*
X026090Y003676D01*
X026083Y003670D01*
X026046Y003711D01*
X026006Y003750D01*
X025964Y003786D01*
X025919Y003819D01*
X025872Y003849D01*
X025824Y003876D01*
X025773Y003899D01*
X025721Y003920D01*
X025668Y003936D01*
X025614Y003949D01*
X025560Y003959D01*
X025505Y003965D01*
X025449Y003967D01*
X025449Y003958D01*
X025504Y003956D01*
X025559Y003950D01*
X025613Y003941D01*
X025666Y003928D01*
X025718Y003911D01*
X025770Y003891D01*
X025819Y003868D01*
X025868Y003841D01*
X025914Y003812D01*
X025958Y003779D01*
X026000Y003743D01*
X026039Y003705D01*
X026076Y003664D01*
X026069Y003659D01*
X026033Y003699D01*
X025994Y003737D01*
X025952Y003772D01*
X025909Y003804D01*
X025863Y003834D01*
X025815Y003860D01*
X025766Y003883D01*
X025716Y003903D01*
X025664Y003919D01*
X025611Y003932D01*
X025557Y003941D01*
X025503Y003947D01*
X025449Y003949D01*
X025449Y003940D01*
X025503Y003938D01*
X025556Y003932D01*
X025609Y003923D01*
X025661Y003910D01*
X025713Y003894D01*
X025763Y003875D01*
X025811Y003852D01*
X025858Y003826D01*
X025904Y003797D01*
X025947Y003765D01*
X025988Y003730D01*
X026026Y003693D01*
X026062Y003653D01*
X026055Y003647D01*
X026020Y003686D01*
X025982Y003723D01*
X025941Y003758D01*
X025898Y003789D01*
X025854Y003818D01*
X025807Y003844D01*
X025759Y003866D01*
X025710Y003886D01*
X025659Y003902D01*
X025607Y003914D01*
X025555Y003923D01*
X025502Y003929D01*
X025449Y003931D01*
X025449Y003922D01*
X025501Y003920D01*
X025554Y003914D01*
X025605Y003905D01*
X025656Y003893D01*
X025707Y003877D01*
X025756Y003858D01*
X025803Y003836D01*
X025849Y003810D01*
X025893Y003782D01*
X025935Y003751D01*
X025976Y003717D01*
X026013Y003680D01*
X026048Y003641D01*
X026042Y003635D01*
X026007Y003674D01*
X025969Y003710D01*
X025930Y003744D01*
X025888Y003775D01*
X025844Y003803D01*
X025799Y003828D01*
X025752Y003850D01*
X025704Y003869D01*
X025654Y003884D01*
X025604Y003897D01*
X025552Y003905D01*
X025501Y003911D01*
X025449Y003913D01*
X025449Y003904D01*
X025500Y003902D01*
X025551Y003897D01*
X025602Y003888D01*
X025652Y003876D01*
X025701Y003860D01*
X025748Y003842D01*
X025795Y003820D01*
X025840Y003795D01*
X025883Y003767D01*
X025924Y003737D01*
X025963Y003704D01*
X026000Y003668D01*
X026035Y003630D01*
X026028Y003624D01*
X025991Y003665D01*
X025951Y003703D01*
X025909Y003737D01*
X025864Y003769D01*
X025817Y003798D01*
X025768Y003823D01*
X025717Y003844D01*
X025666Y003862D01*
X025612Y003876D01*
X025558Y003886D01*
X025504Y003893D01*
X025449Y003895D01*
D16*
X026064Y003641D02*
X026064Y003441D01*
X026064Y002801D02*
X026064Y002621D01*
D17*
X021178Y010460D02*
X021178Y010787D01*
X021257Y011214D02*
X021257Y011541D01*
X021094Y011378D02*
X021421Y011378D01*
M02*
