G75*
%MOIN*%
%OFA0B0*%
%FSLAX24Y24*%
%IPPOS*%
%LPD*%
%AMOC8*
5,1,8,0,0,1.08239X$1,22.5*
%
%ADD10C,0.0000*%
D10*
X000131Y002210D02*
X000131Y012053D01*
X000139Y012053D02*
X005651Y013037D01*
X006832Y012053D02*
X003486Y012053D01*
X003447Y012051D01*
X003409Y012045D01*
X003372Y012036D01*
X003335Y012023D01*
X003300Y012006D01*
X003267Y011987D01*
X003236Y011964D01*
X003207Y011938D01*
X003181Y011909D01*
X003158Y011878D01*
X003139Y011845D01*
X003122Y011810D01*
X003109Y011773D01*
X003100Y011736D01*
X003094Y011698D01*
X003092Y011659D01*
X003092Y009887D01*
X003090Y009848D01*
X003084Y009810D01*
X003075Y009773D01*
X003062Y009736D01*
X003045Y009701D01*
X003026Y009668D01*
X003003Y009637D01*
X002977Y009608D01*
X002948Y009582D01*
X002917Y009559D01*
X002884Y009540D01*
X002849Y009523D01*
X002812Y009510D01*
X002775Y009501D01*
X002737Y009495D01*
X002698Y009493D01*
X002698Y009494D02*
X002659Y009492D01*
X002621Y009486D01*
X002584Y009477D01*
X002547Y009464D01*
X002512Y009447D01*
X002479Y009428D01*
X002448Y009405D01*
X002419Y009379D01*
X002393Y009350D01*
X002370Y009319D01*
X002351Y009286D01*
X002334Y009251D01*
X002321Y009214D01*
X002312Y009177D01*
X002306Y009139D01*
X002304Y009100D01*
X002305Y009100D02*
X002305Y005163D01*
X002304Y005163D02*
X002306Y005124D01*
X002312Y005086D01*
X002321Y005049D01*
X002334Y005012D01*
X002351Y004977D01*
X002370Y004944D01*
X002393Y004913D01*
X002419Y004884D01*
X002448Y004858D01*
X002479Y004835D01*
X002512Y004816D01*
X002547Y004799D01*
X002584Y004786D01*
X002621Y004777D01*
X002659Y004771D01*
X002698Y004769D01*
X002698Y004770D02*
X002737Y004768D01*
X002775Y004762D01*
X002812Y004753D01*
X002849Y004740D01*
X002884Y004723D01*
X002917Y004704D01*
X002948Y004681D01*
X002977Y004655D01*
X003003Y004626D01*
X003026Y004595D01*
X003045Y004562D01*
X003062Y004527D01*
X003075Y004490D01*
X003084Y004453D01*
X003090Y004415D01*
X003092Y004376D01*
X003092Y002604D01*
X003094Y002565D01*
X003100Y002527D01*
X003109Y002490D01*
X003122Y002453D01*
X003139Y002418D01*
X003158Y002385D01*
X003181Y002354D01*
X003207Y002325D01*
X003236Y002299D01*
X003267Y002276D01*
X003300Y002257D01*
X003335Y002240D01*
X003372Y002227D01*
X003409Y002218D01*
X003447Y002212D01*
X003486Y002210D01*
X006832Y002210D01*
X006871Y002212D01*
X006909Y002218D01*
X006946Y002227D01*
X006983Y002240D01*
X007018Y002257D01*
X007051Y002276D01*
X007082Y002299D01*
X007111Y002325D01*
X007137Y002354D01*
X007160Y002385D01*
X007179Y002418D01*
X007196Y002453D01*
X007209Y002490D01*
X007218Y002527D01*
X007224Y002565D01*
X007226Y002604D01*
X007226Y004376D01*
X007228Y004415D01*
X007234Y004453D01*
X007243Y004490D01*
X007256Y004527D01*
X007273Y004562D01*
X007292Y004595D01*
X007315Y004626D01*
X007341Y004655D01*
X007370Y004681D01*
X007401Y004704D01*
X007434Y004723D01*
X007469Y004740D01*
X007506Y004753D01*
X007543Y004762D01*
X007581Y004768D01*
X007620Y004770D01*
X007620Y004769D02*
X007659Y004771D01*
X007697Y004777D01*
X007734Y004786D01*
X007771Y004799D01*
X007806Y004816D01*
X007839Y004835D01*
X007870Y004858D01*
X007899Y004884D01*
X007925Y004913D01*
X007948Y004944D01*
X007967Y004977D01*
X007984Y005012D01*
X007997Y005049D01*
X008006Y005086D01*
X008012Y005124D01*
X008014Y005163D01*
X008013Y005163D02*
X008013Y009100D01*
X008014Y009100D02*
X008012Y009139D01*
X008006Y009177D01*
X007997Y009214D01*
X007984Y009251D01*
X007967Y009286D01*
X007948Y009319D01*
X007925Y009350D01*
X007899Y009379D01*
X007870Y009405D01*
X007839Y009428D01*
X007806Y009447D01*
X007771Y009464D01*
X007734Y009477D01*
X007697Y009486D01*
X007659Y009492D01*
X007620Y009494D01*
X007620Y009493D02*
X007581Y009495D01*
X007543Y009501D01*
X007506Y009510D01*
X007469Y009523D01*
X007434Y009540D01*
X007401Y009559D01*
X007370Y009582D01*
X007341Y009608D01*
X007315Y009637D01*
X007292Y009668D01*
X007273Y009701D01*
X007256Y009736D01*
X007243Y009773D01*
X007234Y009810D01*
X007228Y009848D01*
X007226Y009887D01*
X007226Y011659D01*
X007224Y011698D01*
X007218Y011736D01*
X007209Y011773D01*
X007196Y011810D01*
X007179Y011845D01*
X007160Y011878D01*
X007137Y011909D01*
X007111Y011938D01*
X007082Y011964D01*
X007051Y011987D01*
X007018Y012006D01*
X006983Y012023D01*
X006946Y012036D01*
X006909Y012045D01*
X006871Y012051D01*
X006832Y012053D01*
X008801Y011462D02*
X008801Y002801D01*
X009194Y002407D02*
X009233Y002409D01*
X009271Y002415D01*
X009308Y002424D01*
X009345Y002437D01*
X009380Y002454D01*
X009413Y002473D01*
X009444Y002496D01*
X009473Y002522D01*
X009499Y002551D01*
X009522Y002582D01*
X009541Y002615D01*
X009558Y002650D01*
X009571Y002687D01*
X009580Y002724D01*
X009586Y002762D01*
X009588Y002801D01*
X009588Y011462D01*
X009586Y011501D01*
X009580Y011539D01*
X009571Y011576D01*
X009558Y011613D01*
X009541Y011648D01*
X009522Y011681D01*
X009499Y011712D01*
X009473Y011741D01*
X009444Y011767D01*
X009413Y011790D01*
X009380Y011809D01*
X009345Y011826D01*
X009308Y011839D01*
X009271Y011848D01*
X009233Y011854D01*
X009194Y011856D01*
X009155Y011854D01*
X009117Y011848D01*
X009080Y011839D01*
X009043Y011826D01*
X009008Y011809D01*
X008975Y011790D01*
X008944Y011767D01*
X008915Y011741D01*
X008889Y011712D01*
X008866Y011681D01*
X008847Y011648D01*
X008830Y011613D01*
X008817Y011576D01*
X008808Y011539D01*
X008802Y011501D01*
X008800Y011462D01*
X010376Y012250D02*
X010376Y002013D01*
X010375Y002013D02*
X010377Y001974D01*
X010383Y001936D01*
X010392Y001899D01*
X010405Y001862D01*
X010422Y001827D01*
X010441Y001794D01*
X010464Y001763D01*
X010490Y001734D01*
X010519Y001708D01*
X010550Y001685D01*
X010583Y001666D01*
X010618Y001649D01*
X010655Y001636D01*
X010692Y001627D01*
X010730Y001621D01*
X010769Y001619D01*
X010769Y001620D02*
X012200Y001620D01*
X013198Y002548D02*
X013520Y007060D01*
X013520Y007203D02*
X013198Y011715D01*
X013919Y011856D02*
X013919Y009887D01*
X013921Y009848D01*
X013927Y009810D01*
X013936Y009773D01*
X013949Y009736D01*
X013966Y009701D01*
X013985Y009668D01*
X014008Y009637D01*
X014034Y009608D01*
X014063Y009582D01*
X014094Y009559D01*
X014127Y009540D01*
X014162Y009523D01*
X014199Y009510D01*
X014236Y009501D01*
X014274Y009495D01*
X014313Y009493D01*
X014313Y009494D02*
X014706Y009494D01*
X014745Y009492D01*
X014783Y009486D01*
X014820Y009477D01*
X014857Y009464D01*
X014892Y009447D01*
X014925Y009428D01*
X014956Y009405D01*
X014985Y009379D01*
X015011Y009350D01*
X015034Y009319D01*
X015053Y009286D01*
X015070Y009251D01*
X015083Y009214D01*
X015092Y009177D01*
X015098Y009139D01*
X015100Y009100D01*
X015100Y002407D01*
X015494Y002013D02*
X015533Y002015D01*
X015571Y002021D01*
X015608Y002030D01*
X015645Y002043D01*
X015680Y002060D01*
X015713Y002079D01*
X015744Y002102D01*
X015773Y002128D01*
X015799Y002157D01*
X015822Y002188D01*
X015841Y002221D01*
X015858Y002256D01*
X015871Y002293D01*
X015880Y002330D01*
X015886Y002368D01*
X015888Y002407D01*
X015887Y002407D02*
X015887Y011856D01*
X015888Y011856D02*
X015886Y011895D01*
X015880Y011933D01*
X015871Y011970D01*
X015858Y012007D01*
X015841Y012042D01*
X015822Y012075D01*
X015799Y012106D01*
X015773Y012135D01*
X015744Y012161D01*
X015713Y012184D01*
X015680Y012203D01*
X015645Y012220D01*
X015608Y012233D01*
X015571Y012242D01*
X015533Y012248D01*
X015494Y012250D01*
X014313Y012250D01*
X014274Y012248D01*
X014236Y012242D01*
X014199Y012233D01*
X014162Y012220D01*
X014127Y012203D01*
X014094Y012184D01*
X014063Y012161D01*
X014034Y012135D01*
X014008Y012106D01*
X013985Y012075D01*
X013966Y012042D01*
X013949Y012007D01*
X013936Y011970D01*
X013927Y011933D01*
X013921Y011895D01*
X013919Y011856D01*
X013197Y011714D02*
X013191Y011776D01*
X013181Y011838D01*
X013167Y011899D01*
X013149Y011959D01*
X013127Y012017D01*
X013102Y012075D01*
X013073Y012130D01*
X013041Y012184D01*
X013006Y012235D01*
X012967Y012284D01*
X012926Y012331D01*
X012881Y012375D01*
X012834Y012416D01*
X012785Y012454D01*
X012733Y012489D01*
X012679Y012521D01*
X012624Y012549D01*
X012566Y012574D01*
X012507Y012595D01*
X012447Y012612D01*
X012386Y012625D01*
X012325Y012635D01*
X012262Y012641D01*
X012200Y012643D01*
X010769Y012643D01*
X010769Y012644D02*
X010730Y012642D01*
X010692Y012636D01*
X010655Y012627D01*
X010618Y012614D01*
X010583Y012597D01*
X010550Y012578D01*
X010519Y012555D01*
X010490Y012529D01*
X010464Y012500D01*
X010441Y012469D01*
X010422Y012436D01*
X010405Y012401D01*
X010392Y012364D01*
X010383Y012327D01*
X010377Y012289D01*
X010375Y012250D01*
X014706Y013037D02*
X014708Y013076D01*
X014714Y013115D01*
X014724Y013153D01*
X014737Y013190D01*
X014754Y013225D01*
X014774Y013259D01*
X014798Y013290D01*
X014825Y013319D01*
X014854Y013345D01*
X014886Y013368D01*
X014920Y013388D01*
X014956Y013404D01*
X014993Y013416D01*
X015032Y013425D01*
X015071Y013430D01*
X015110Y013431D01*
X015149Y013428D01*
X015188Y013421D01*
X015225Y013410D01*
X015262Y013396D01*
X015297Y013378D01*
X015330Y013357D01*
X015361Y013332D01*
X015389Y013305D01*
X015414Y013275D01*
X015436Y013242D01*
X015455Y013208D01*
X015470Y013172D01*
X015482Y013134D01*
X015490Y013096D01*
X015494Y013057D01*
X015494Y013017D01*
X015490Y012978D01*
X015482Y012940D01*
X015470Y012902D01*
X015455Y012866D01*
X015436Y012832D01*
X015414Y012799D01*
X015389Y012769D01*
X015361Y012742D01*
X015330Y012717D01*
X015297Y012696D01*
X015262Y012678D01*
X015225Y012664D01*
X015188Y012653D01*
X015149Y012646D01*
X015110Y012643D01*
X015071Y012644D01*
X015032Y012649D01*
X014993Y012658D01*
X014956Y012670D01*
X014920Y012686D01*
X014886Y012706D01*
X014854Y012729D01*
X014825Y012755D01*
X014798Y012784D01*
X014774Y012815D01*
X014754Y012849D01*
X014737Y012884D01*
X014724Y012921D01*
X014714Y012959D01*
X014708Y012998D01*
X014706Y013037D01*
X016281Y011856D02*
X016283Y011895D01*
X016289Y011934D01*
X016299Y011972D01*
X016312Y012009D01*
X016329Y012044D01*
X016349Y012078D01*
X016373Y012109D01*
X016400Y012138D01*
X016429Y012164D01*
X016461Y012187D01*
X016495Y012207D01*
X016531Y012223D01*
X016568Y012235D01*
X016607Y012244D01*
X016646Y012249D01*
X016685Y012250D01*
X016724Y012247D01*
X016763Y012240D01*
X016800Y012229D01*
X016837Y012215D01*
X016872Y012197D01*
X016905Y012176D01*
X016936Y012151D01*
X016964Y012124D01*
X016989Y012094D01*
X017011Y012061D01*
X017030Y012027D01*
X017045Y011991D01*
X017057Y011953D01*
X017065Y011915D01*
X017069Y011876D01*
X017069Y011836D01*
X017065Y011797D01*
X017057Y011759D01*
X017045Y011721D01*
X017030Y011685D01*
X017011Y011651D01*
X016989Y011618D01*
X016964Y011588D01*
X016936Y011561D01*
X016905Y011536D01*
X016872Y011515D01*
X016837Y011497D01*
X016800Y011483D01*
X016763Y011472D01*
X016724Y011465D01*
X016685Y011462D01*
X016646Y011463D01*
X016607Y011468D01*
X016568Y011477D01*
X016531Y011489D01*
X016495Y011505D01*
X016461Y011525D01*
X016429Y011548D01*
X016400Y011574D01*
X016373Y011603D01*
X016349Y011634D01*
X016329Y011668D01*
X016312Y011703D01*
X016299Y011740D01*
X016289Y011778D01*
X016283Y011817D01*
X016281Y011856D01*
X005651Y001225D02*
X006922Y001014D01*
X008199Y000834D01*
X009479Y000684D01*
X010762Y000565D01*
X012048Y000477D01*
X013336Y000420D01*
X014625Y000394D01*
X015914Y000399D01*
X017202Y000435D01*
X018490Y000502D01*
X019775Y000600D01*
X021057Y000729D01*
X022336Y000889D01*
X023611Y001080D01*
X024881Y001301D01*
X026145Y001553D01*
X027403Y001835D01*
X028654Y002147D01*
X029896Y002490D01*
X031130Y002862D01*
X032355Y003264D01*
X033570Y003695D01*
X034774Y004155D01*
X035966Y004645D01*
X037147Y005162D01*
X037124Y005163D02*
X037124Y009100D01*
X035966Y007919D02*
X035968Y007958D01*
X035974Y007997D01*
X035984Y008035D01*
X035997Y008072D01*
X036014Y008107D01*
X036034Y008141D01*
X036058Y008172D01*
X036085Y008201D01*
X036114Y008227D01*
X036146Y008250D01*
X036180Y008270D01*
X036216Y008286D01*
X036253Y008298D01*
X036292Y008307D01*
X036331Y008312D01*
X036370Y008313D01*
X036409Y008310D01*
X036448Y008303D01*
X036485Y008292D01*
X036522Y008278D01*
X036557Y008260D01*
X036590Y008239D01*
X036621Y008214D01*
X036649Y008187D01*
X036674Y008157D01*
X036696Y008124D01*
X036715Y008090D01*
X036730Y008054D01*
X036742Y008016D01*
X036750Y007978D01*
X036754Y007939D01*
X036754Y007899D01*
X036750Y007860D01*
X036742Y007822D01*
X036730Y007784D01*
X036715Y007748D01*
X036696Y007714D01*
X036674Y007681D01*
X036649Y007651D01*
X036621Y007624D01*
X036590Y007599D01*
X036557Y007578D01*
X036522Y007560D01*
X036485Y007546D01*
X036448Y007535D01*
X036409Y007528D01*
X036370Y007525D01*
X036331Y007526D01*
X036292Y007531D01*
X036253Y007540D01*
X036216Y007552D01*
X036180Y007568D01*
X036146Y007588D01*
X036114Y007611D01*
X036085Y007637D01*
X036058Y007666D01*
X036034Y007697D01*
X036014Y007731D01*
X035997Y007766D01*
X035984Y007803D01*
X035974Y007841D01*
X035968Y007880D01*
X035966Y007919D01*
X035966Y006344D02*
X035968Y006383D01*
X035974Y006422D01*
X035984Y006460D01*
X035997Y006497D01*
X036014Y006532D01*
X036034Y006566D01*
X036058Y006597D01*
X036085Y006626D01*
X036114Y006652D01*
X036146Y006675D01*
X036180Y006695D01*
X036216Y006711D01*
X036253Y006723D01*
X036292Y006732D01*
X036331Y006737D01*
X036370Y006738D01*
X036409Y006735D01*
X036448Y006728D01*
X036485Y006717D01*
X036522Y006703D01*
X036557Y006685D01*
X036590Y006664D01*
X036621Y006639D01*
X036649Y006612D01*
X036674Y006582D01*
X036696Y006549D01*
X036715Y006515D01*
X036730Y006479D01*
X036742Y006441D01*
X036750Y006403D01*
X036754Y006364D01*
X036754Y006324D01*
X036750Y006285D01*
X036742Y006247D01*
X036730Y006209D01*
X036715Y006173D01*
X036696Y006139D01*
X036674Y006106D01*
X036649Y006076D01*
X036621Y006049D01*
X036590Y006024D01*
X036557Y006003D01*
X036522Y005985D01*
X036485Y005971D01*
X036448Y005960D01*
X036409Y005953D01*
X036370Y005950D01*
X036331Y005951D01*
X036292Y005956D01*
X036253Y005965D01*
X036216Y005977D01*
X036180Y005993D01*
X036146Y006013D01*
X036114Y006036D01*
X036085Y006062D01*
X036058Y006091D01*
X036034Y006122D01*
X036014Y006156D01*
X035997Y006191D01*
X035984Y006228D01*
X035974Y006266D01*
X035968Y006305D01*
X035966Y006344D01*
X022974Y002407D02*
X022976Y002446D01*
X022982Y002485D01*
X022992Y002523D01*
X023005Y002560D01*
X023022Y002595D01*
X023042Y002629D01*
X023066Y002660D01*
X023093Y002689D01*
X023122Y002715D01*
X023154Y002738D01*
X023188Y002758D01*
X023224Y002774D01*
X023261Y002786D01*
X023300Y002795D01*
X023339Y002800D01*
X023378Y002801D01*
X023417Y002798D01*
X023456Y002791D01*
X023493Y002780D01*
X023530Y002766D01*
X023565Y002748D01*
X023598Y002727D01*
X023629Y002702D01*
X023657Y002675D01*
X023682Y002645D01*
X023704Y002612D01*
X023723Y002578D01*
X023738Y002542D01*
X023750Y002504D01*
X023758Y002466D01*
X023762Y002427D01*
X023762Y002387D01*
X023758Y002348D01*
X023750Y002310D01*
X023738Y002272D01*
X023723Y002236D01*
X023704Y002202D01*
X023682Y002169D01*
X023657Y002139D01*
X023629Y002112D01*
X023598Y002087D01*
X023565Y002066D01*
X023530Y002048D01*
X023493Y002034D01*
X023456Y002023D01*
X023417Y002016D01*
X023378Y002013D01*
X023339Y002014D01*
X023300Y002019D01*
X023261Y002028D01*
X023224Y002040D01*
X023188Y002056D01*
X023154Y002076D01*
X023122Y002099D01*
X023093Y002125D01*
X023066Y002154D01*
X023042Y002185D01*
X023022Y002219D01*
X023005Y002254D01*
X022992Y002291D01*
X022982Y002329D01*
X022976Y002368D01*
X022974Y002407D01*
X015494Y002013D02*
X015455Y002015D01*
X015417Y002021D01*
X015380Y002030D01*
X015343Y002043D01*
X015308Y002060D01*
X015275Y002079D01*
X015244Y002102D01*
X015215Y002128D01*
X015189Y002157D01*
X015166Y002188D01*
X015147Y002221D01*
X015130Y002256D01*
X015117Y002293D01*
X015108Y002330D01*
X015102Y002368D01*
X015100Y002407D01*
X014706Y001226D02*
X014708Y001265D01*
X014714Y001304D01*
X014724Y001342D01*
X014737Y001379D01*
X014754Y001414D01*
X014774Y001448D01*
X014798Y001479D01*
X014825Y001508D01*
X014854Y001534D01*
X014886Y001557D01*
X014920Y001577D01*
X014956Y001593D01*
X014993Y001605D01*
X015032Y001614D01*
X015071Y001619D01*
X015110Y001620D01*
X015149Y001617D01*
X015188Y001610D01*
X015225Y001599D01*
X015262Y001585D01*
X015297Y001567D01*
X015330Y001546D01*
X015361Y001521D01*
X015389Y001494D01*
X015414Y001464D01*
X015436Y001431D01*
X015455Y001397D01*
X015470Y001361D01*
X015482Y001323D01*
X015490Y001285D01*
X015494Y001246D01*
X015494Y001206D01*
X015490Y001167D01*
X015482Y001129D01*
X015470Y001091D01*
X015455Y001055D01*
X015436Y001021D01*
X015414Y000988D01*
X015389Y000958D01*
X015361Y000931D01*
X015330Y000906D01*
X015297Y000885D01*
X015262Y000867D01*
X015225Y000853D01*
X015188Y000842D01*
X015149Y000835D01*
X015110Y000832D01*
X015071Y000833D01*
X015032Y000838D01*
X014993Y000847D01*
X014956Y000859D01*
X014920Y000875D01*
X014886Y000895D01*
X014854Y000918D01*
X014825Y000944D01*
X014798Y000973D01*
X014774Y001004D01*
X014754Y001038D01*
X014737Y001073D01*
X014724Y001110D01*
X014714Y001148D01*
X014708Y001187D01*
X014706Y001226D01*
X005651Y013038D02*
X006922Y013249D01*
X008199Y013429D01*
X009479Y013579D01*
X010762Y013698D01*
X012048Y013786D01*
X013336Y013843D01*
X014625Y013869D01*
X015914Y013864D01*
X017202Y013828D01*
X018490Y013761D01*
X019775Y013663D01*
X021057Y013534D01*
X022336Y013374D01*
X023611Y013183D01*
X024881Y012962D01*
X026145Y012710D01*
X027403Y012428D01*
X028654Y012116D01*
X029896Y011773D01*
X031130Y011401D01*
X032355Y010999D01*
X033570Y010568D01*
X034774Y010108D01*
X035966Y009618D01*
X037147Y009101D01*
X022974Y011856D02*
X022976Y011895D01*
X022982Y011934D01*
X022992Y011972D01*
X023005Y012009D01*
X023022Y012044D01*
X023042Y012078D01*
X023066Y012109D01*
X023093Y012138D01*
X023122Y012164D01*
X023154Y012187D01*
X023188Y012207D01*
X023224Y012223D01*
X023261Y012235D01*
X023300Y012244D01*
X023339Y012249D01*
X023378Y012250D01*
X023417Y012247D01*
X023456Y012240D01*
X023493Y012229D01*
X023530Y012215D01*
X023565Y012197D01*
X023598Y012176D01*
X023629Y012151D01*
X023657Y012124D01*
X023682Y012094D01*
X023704Y012061D01*
X023723Y012027D01*
X023738Y011991D01*
X023750Y011953D01*
X023758Y011915D01*
X023762Y011876D01*
X023762Y011836D01*
X023758Y011797D01*
X023750Y011759D01*
X023738Y011721D01*
X023723Y011685D01*
X023704Y011651D01*
X023682Y011618D01*
X023657Y011588D01*
X023629Y011561D01*
X023598Y011536D01*
X023565Y011515D01*
X023530Y011497D01*
X023493Y011483D01*
X023456Y011472D01*
X023417Y011465D01*
X023378Y011462D01*
X023339Y011463D01*
X023300Y011468D01*
X023261Y011477D01*
X023224Y011489D01*
X023188Y011505D01*
X023154Y011525D01*
X023122Y011548D01*
X023093Y011574D01*
X023066Y011603D01*
X023042Y011634D01*
X023022Y011668D01*
X023005Y011703D01*
X022992Y011740D01*
X022982Y011778D01*
X022976Y011817D01*
X022974Y011856D01*
X013919Y007919D02*
X013921Y007958D01*
X013927Y007997D01*
X013937Y008035D01*
X013950Y008072D01*
X013967Y008107D01*
X013987Y008141D01*
X014011Y008172D01*
X014038Y008201D01*
X014067Y008227D01*
X014099Y008250D01*
X014133Y008270D01*
X014169Y008286D01*
X014206Y008298D01*
X014245Y008307D01*
X014284Y008312D01*
X014323Y008313D01*
X014362Y008310D01*
X014401Y008303D01*
X014438Y008292D01*
X014475Y008278D01*
X014510Y008260D01*
X014543Y008239D01*
X014574Y008214D01*
X014602Y008187D01*
X014627Y008157D01*
X014649Y008124D01*
X014668Y008090D01*
X014683Y008054D01*
X014695Y008016D01*
X014703Y007978D01*
X014707Y007939D01*
X014707Y007899D01*
X014703Y007860D01*
X014695Y007822D01*
X014683Y007784D01*
X014668Y007748D01*
X014649Y007714D01*
X014627Y007681D01*
X014602Y007651D01*
X014574Y007624D01*
X014543Y007599D01*
X014510Y007578D01*
X014475Y007560D01*
X014438Y007546D01*
X014401Y007535D01*
X014362Y007528D01*
X014323Y007525D01*
X014284Y007526D01*
X014245Y007531D01*
X014206Y007540D01*
X014169Y007552D01*
X014133Y007568D01*
X014099Y007588D01*
X014067Y007611D01*
X014038Y007637D01*
X014011Y007666D01*
X013987Y007697D01*
X013967Y007731D01*
X013950Y007766D01*
X013937Y007803D01*
X013927Y007841D01*
X013921Y007880D01*
X013919Y007919D01*
X013520Y007202D02*
X013523Y007155D01*
X013523Y007107D01*
X013520Y007060D01*
X013919Y006344D02*
X013921Y006383D01*
X013927Y006422D01*
X013937Y006460D01*
X013950Y006497D01*
X013967Y006532D01*
X013987Y006566D01*
X014011Y006597D01*
X014038Y006626D01*
X014067Y006652D01*
X014099Y006675D01*
X014133Y006695D01*
X014169Y006711D01*
X014206Y006723D01*
X014245Y006732D01*
X014284Y006737D01*
X014323Y006738D01*
X014362Y006735D01*
X014401Y006728D01*
X014438Y006717D01*
X014475Y006703D01*
X014510Y006685D01*
X014543Y006664D01*
X014574Y006639D01*
X014602Y006612D01*
X014627Y006582D01*
X014649Y006549D01*
X014668Y006515D01*
X014683Y006479D01*
X014695Y006441D01*
X014703Y006403D01*
X014707Y006364D01*
X014707Y006324D01*
X014703Y006285D01*
X014695Y006247D01*
X014683Y006209D01*
X014668Y006173D01*
X014649Y006139D01*
X014627Y006106D01*
X014602Y006076D01*
X014574Y006049D01*
X014543Y006024D01*
X014510Y006003D01*
X014475Y005985D01*
X014438Y005971D01*
X014401Y005960D01*
X014362Y005953D01*
X014323Y005950D01*
X014284Y005951D01*
X014245Y005956D01*
X014206Y005965D01*
X014169Y005977D01*
X014133Y005993D01*
X014099Y006013D01*
X014067Y006036D01*
X014038Y006062D01*
X014011Y006091D01*
X013987Y006122D01*
X013967Y006156D01*
X013950Y006191D01*
X013937Y006228D01*
X013927Y006266D01*
X013921Y006305D01*
X013919Y006344D01*
X007541Y004277D02*
X007543Y004310D01*
X007549Y004342D01*
X007558Y004373D01*
X007571Y004403D01*
X007588Y004431D01*
X007608Y004457D01*
X007631Y004481D01*
X007656Y004501D01*
X007684Y004519D01*
X007713Y004533D01*
X007744Y004543D01*
X007776Y004550D01*
X007809Y004553D01*
X007842Y004552D01*
X007874Y004547D01*
X007905Y004538D01*
X007936Y004526D01*
X007964Y004510D01*
X007991Y004491D01*
X008015Y004469D01*
X008036Y004444D01*
X008055Y004417D01*
X008070Y004388D01*
X008081Y004358D01*
X008089Y004326D01*
X008093Y004293D01*
X008093Y004261D01*
X008089Y004228D01*
X008081Y004196D01*
X008070Y004166D01*
X008055Y004137D01*
X008036Y004110D01*
X008015Y004085D01*
X007991Y004063D01*
X007964Y004044D01*
X007936Y004028D01*
X007905Y004016D01*
X007874Y004007D01*
X007842Y004002D01*
X007809Y004001D01*
X007776Y004004D01*
X007744Y004011D01*
X007713Y004021D01*
X007684Y004035D01*
X007656Y004053D01*
X007631Y004073D01*
X007608Y004097D01*
X007588Y004123D01*
X007571Y004151D01*
X007558Y004181D01*
X007549Y004212D01*
X007543Y004244D01*
X007541Y004277D01*
X008800Y002801D02*
X008802Y002762D01*
X008808Y002724D01*
X008817Y002687D01*
X008830Y002650D01*
X008847Y002615D01*
X008866Y002582D01*
X008889Y002551D01*
X008915Y002522D01*
X008944Y002496D01*
X008975Y002473D01*
X009008Y002454D01*
X009043Y002437D01*
X009080Y002424D01*
X009117Y002415D01*
X009155Y002409D01*
X009194Y002407D01*
X012200Y001620D02*
X012262Y001622D01*
X012325Y001628D01*
X012386Y001638D01*
X012447Y001651D01*
X012507Y001668D01*
X012566Y001689D01*
X012624Y001714D01*
X012679Y001742D01*
X012733Y001774D01*
X012785Y001809D01*
X012834Y001847D01*
X012881Y001888D01*
X012926Y001932D01*
X012967Y001979D01*
X013006Y002028D01*
X013041Y002079D01*
X013073Y002133D01*
X013102Y002188D01*
X013127Y002246D01*
X013149Y002304D01*
X013167Y002364D01*
X013181Y002425D01*
X013191Y002487D01*
X013197Y002549D01*
X005651Y001226D02*
X000139Y002210D01*
X000533Y003194D02*
X000535Y003233D01*
X000541Y003272D01*
X000551Y003310D01*
X000564Y003347D01*
X000581Y003382D01*
X000601Y003416D01*
X000625Y003447D01*
X000652Y003476D01*
X000681Y003502D01*
X000713Y003525D01*
X000747Y003545D01*
X000783Y003561D01*
X000820Y003573D01*
X000859Y003582D01*
X000898Y003587D01*
X000937Y003588D01*
X000976Y003585D01*
X001015Y003578D01*
X001052Y003567D01*
X001089Y003553D01*
X001124Y003535D01*
X001157Y003514D01*
X001188Y003489D01*
X001216Y003462D01*
X001241Y003432D01*
X001263Y003399D01*
X001282Y003365D01*
X001297Y003329D01*
X001309Y003291D01*
X001317Y003253D01*
X001321Y003214D01*
X001321Y003174D01*
X001317Y003135D01*
X001309Y003097D01*
X001297Y003059D01*
X001282Y003023D01*
X001263Y002989D01*
X001241Y002956D01*
X001216Y002926D01*
X001188Y002899D01*
X001157Y002874D01*
X001124Y002853D01*
X001089Y002835D01*
X001052Y002821D01*
X001015Y002810D01*
X000976Y002803D01*
X000937Y002800D01*
X000898Y002801D01*
X000859Y002806D01*
X000820Y002815D01*
X000783Y002827D01*
X000747Y002843D01*
X000713Y002863D01*
X000681Y002886D01*
X000652Y002912D01*
X000625Y002941D01*
X000601Y002972D01*
X000581Y003006D01*
X000564Y003041D01*
X000551Y003078D01*
X000541Y003116D01*
X000535Y003155D01*
X000533Y003194D01*
X002226Y004277D02*
X002228Y004310D01*
X002234Y004342D01*
X002243Y004373D01*
X002256Y004403D01*
X002273Y004431D01*
X002293Y004457D01*
X002316Y004481D01*
X002341Y004501D01*
X002369Y004519D01*
X002398Y004533D01*
X002429Y004543D01*
X002461Y004550D01*
X002494Y004553D01*
X002527Y004552D01*
X002559Y004547D01*
X002590Y004538D01*
X002621Y004526D01*
X002649Y004510D01*
X002676Y004491D01*
X002700Y004469D01*
X002721Y004444D01*
X002740Y004417D01*
X002755Y004388D01*
X002766Y004358D01*
X002774Y004326D01*
X002778Y004293D01*
X002778Y004261D01*
X002774Y004228D01*
X002766Y004196D01*
X002755Y004166D01*
X002740Y004137D01*
X002721Y004110D01*
X002700Y004085D01*
X002676Y004063D01*
X002649Y004044D01*
X002621Y004028D01*
X002590Y004016D01*
X002559Y004007D01*
X002527Y004002D01*
X002494Y004001D01*
X002461Y004004D01*
X002429Y004011D01*
X002398Y004021D01*
X002369Y004035D01*
X002341Y004053D01*
X002316Y004073D01*
X002293Y004097D01*
X002273Y004123D01*
X002256Y004151D01*
X002243Y004181D01*
X002234Y004212D01*
X002228Y004244D01*
X002226Y004277D01*
X000533Y006344D02*
X000535Y006383D01*
X000541Y006422D01*
X000551Y006460D01*
X000564Y006497D01*
X000581Y006532D01*
X000601Y006566D01*
X000625Y006597D01*
X000652Y006626D01*
X000681Y006652D01*
X000713Y006675D01*
X000747Y006695D01*
X000783Y006711D01*
X000820Y006723D01*
X000859Y006732D01*
X000898Y006737D01*
X000937Y006738D01*
X000976Y006735D01*
X001015Y006728D01*
X001052Y006717D01*
X001089Y006703D01*
X001124Y006685D01*
X001157Y006664D01*
X001188Y006639D01*
X001216Y006612D01*
X001241Y006582D01*
X001263Y006549D01*
X001282Y006515D01*
X001297Y006479D01*
X001309Y006441D01*
X001317Y006403D01*
X001321Y006364D01*
X001321Y006324D01*
X001317Y006285D01*
X001309Y006247D01*
X001297Y006209D01*
X001282Y006173D01*
X001263Y006139D01*
X001241Y006106D01*
X001216Y006076D01*
X001188Y006049D01*
X001157Y006024D01*
X001124Y006003D01*
X001089Y005985D01*
X001052Y005971D01*
X001015Y005960D01*
X000976Y005953D01*
X000937Y005950D01*
X000898Y005951D01*
X000859Y005956D01*
X000820Y005965D01*
X000783Y005977D01*
X000747Y005993D01*
X000713Y006013D01*
X000681Y006036D01*
X000652Y006062D01*
X000625Y006091D01*
X000601Y006122D01*
X000581Y006156D01*
X000564Y006191D01*
X000551Y006228D01*
X000541Y006266D01*
X000535Y006305D01*
X000533Y006344D01*
X000533Y007919D02*
X000535Y007958D01*
X000541Y007997D01*
X000551Y008035D01*
X000564Y008072D01*
X000581Y008107D01*
X000601Y008141D01*
X000625Y008172D01*
X000652Y008201D01*
X000681Y008227D01*
X000713Y008250D01*
X000747Y008270D01*
X000783Y008286D01*
X000820Y008298D01*
X000859Y008307D01*
X000898Y008312D01*
X000937Y008313D01*
X000976Y008310D01*
X001015Y008303D01*
X001052Y008292D01*
X001089Y008278D01*
X001124Y008260D01*
X001157Y008239D01*
X001188Y008214D01*
X001216Y008187D01*
X001241Y008157D01*
X001263Y008124D01*
X001282Y008090D01*
X001297Y008054D01*
X001309Y008016D01*
X001317Y007978D01*
X001321Y007939D01*
X001321Y007899D01*
X001317Y007860D01*
X001309Y007822D01*
X001297Y007784D01*
X001282Y007748D01*
X001263Y007714D01*
X001241Y007681D01*
X001216Y007651D01*
X001188Y007624D01*
X001157Y007599D01*
X001124Y007578D01*
X001089Y007560D01*
X001052Y007546D01*
X001015Y007535D01*
X000976Y007528D01*
X000937Y007525D01*
X000898Y007526D01*
X000859Y007531D01*
X000820Y007540D01*
X000783Y007552D01*
X000747Y007568D01*
X000713Y007588D01*
X000681Y007611D01*
X000652Y007637D01*
X000625Y007666D01*
X000601Y007697D01*
X000581Y007731D01*
X000564Y007766D01*
X000551Y007803D01*
X000541Y007841D01*
X000535Y007880D01*
X000533Y007919D01*
X002226Y009986D02*
X002228Y010019D01*
X002234Y010051D01*
X002243Y010082D01*
X002256Y010112D01*
X002273Y010140D01*
X002293Y010166D01*
X002316Y010190D01*
X002341Y010210D01*
X002369Y010228D01*
X002398Y010242D01*
X002429Y010252D01*
X002461Y010259D01*
X002494Y010262D01*
X002527Y010261D01*
X002559Y010256D01*
X002590Y010247D01*
X002621Y010235D01*
X002649Y010219D01*
X002676Y010200D01*
X002700Y010178D01*
X002721Y010153D01*
X002740Y010126D01*
X002755Y010097D01*
X002766Y010067D01*
X002774Y010035D01*
X002778Y010002D01*
X002778Y009970D01*
X002774Y009937D01*
X002766Y009905D01*
X002755Y009875D01*
X002740Y009846D01*
X002721Y009819D01*
X002700Y009794D01*
X002676Y009772D01*
X002649Y009753D01*
X002621Y009737D01*
X002590Y009725D01*
X002559Y009716D01*
X002527Y009711D01*
X002494Y009710D01*
X002461Y009713D01*
X002429Y009720D01*
X002398Y009730D01*
X002369Y009744D01*
X002341Y009762D01*
X002316Y009782D01*
X002293Y009806D01*
X002273Y009832D01*
X002256Y009860D01*
X002243Y009890D01*
X002234Y009921D01*
X002228Y009953D01*
X002226Y009986D01*
X000533Y011069D02*
X000535Y011108D01*
X000541Y011147D01*
X000551Y011185D01*
X000564Y011222D01*
X000581Y011257D01*
X000601Y011291D01*
X000625Y011322D01*
X000652Y011351D01*
X000681Y011377D01*
X000713Y011400D01*
X000747Y011420D01*
X000783Y011436D01*
X000820Y011448D01*
X000859Y011457D01*
X000898Y011462D01*
X000937Y011463D01*
X000976Y011460D01*
X001015Y011453D01*
X001052Y011442D01*
X001089Y011428D01*
X001124Y011410D01*
X001157Y011389D01*
X001188Y011364D01*
X001216Y011337D01*
X001241Y011307D01*
X001263Y011274D01*
X001282Y011240D01*
X001297Y011204D01*
X001309Y011166D01*
X001317Y011128D01*
X001321Y011089D01*
X001321Y011049D01*
X001317Y011010D01*
X001309Y010972D01*
X001297Y010934D01*
X001282Y010898D01*
X001263Y010864D01*
X001241Y010831D01*
X001216Y010801D01*
X001188Y010774D01*
X001157Y010749D01*
X001124Y010728D01*
X001089Y010710D01*
X001052Y010696D01*
X001015Y010685D01*
X000976Y010678D01*
X000937Y010675D01*
X000898Y010676D01*
X000859Y010681D01*
X000820Y010690D01*
X000783Y010702D01*
X000747Y010718D01*
X000713Y010738D01*
X000681Y010761D01*
X000652Y010787D01*
X000625Y010816D01*
X000601Y010847D01*
X000581Y010881D01*
X000564Y010916D01*
X000551Y010953D01*
X000541Y010991D01*
X000535Y011030D01*
X000533Y011069D01*
X007541Y009986D02*
X007543Y010019D01*
X007549Y010051D01*
X007558Y010082D01*
X007571Y010112D01*
X007588Y010140D01*
X007608Y010166D01*
X007631Y010190D01*
X007656Y010210D01*
X007684Y010228D01*
X007713Y010242D01*
X007744Y010252D01*
X007776Y010259D01*
X007809Y010262D01*
X007842Y010261D01*
X007874Y010256D01*
X007905Y010247D01*
X007936Y010235D01*
X007964Y010219D01*
X007991Y010200D01*
X008015Y010178D01*
X008036Y010153D01*
X008055Y010126D01*
X008070Y010097D01*
X008081Y010067D01*
X008089Y010035D01*
X008093Y010002D01*
X008093Y009970D01*
X008089Y009937D01*
X008081Y009905D01*
X008070Y009875D01*
X008055Y009846D01*
X008036Y009819D01*
X008015Y009794D01*
X007991Y009772D01*
X007964Y009753D01*
X007936Y009737D01*
X007905Y009725D01*
X007874Y009716D01*
X007842Y009711D01*
X007809Y009710D01*
X007776Y009713D01*
X007744Y009720D01*
X007713Y009730D01*
X007684Y009744D01*
X007656Y009762D01*
X007631Y009782D01*
X007608Y009806D01*
X007588Y009832D01*
X007571Y009860D01*
X007558Y009890D01*
X007549Y009921D01*
X007543Y009953D01*
X007541Y009986D01*
M02*
